<?xml version="1.0" encoding="iso-8859-1"?>
<!-- Generator: Adobe Illustrator 19.0.0, SVG Export Plug-In . SVG Version: 6.00 Build 0)  -->
<svg version="1.1" id="Layer_1" xmlns="http://www.w3.org/2000/svg" xmlns:xlink="http://www.w3.org/1999/xlink" x="0px" y="0px"
	 viewBox="0 0 295.239 295.239" style="enable-background:new 0 0 295.239 295.239;" xml:space="preserve">
<g>
	<g>
		<g>
			<path d="M195.239,54.762c0-18.89-14.752-34.362-33.333-35.595v-0.119C161.906,8.543,153.362,0,142.857,0
				s-19.048,8.543-19.048,19.048v0.119c-18.58,1.233-33.333,16.704-33.333,35.595c0,13.676,7.733,25.567,19.048,31.562v11.352
				c-2.876,2.176-4.762,5.59-4.762,9.467c0,3.838,1.857,7.224,4.686,9.4c-0.19,8.276-1.39,16.495-3.667,24.457l-3.157,11.067
				c-1.738,6.081-2.624,12.371-2.624,18.705c0,10.51,2.481,21.033,7.186,30.438l0.295,0.595c-4.433,2.424-7.481,7.081-7.481,12.481
				c0,2.557,0.729,4.924,1.91,7.005c-3.995,2.533-6.671,6.971-6.671,12.043c0,1.676,0.343,3.267,0.876,4.762h-0.876v57.143h95.238
				v-57.143h-0.877c0.533-1.495,0.876-3.086,0.876-4.762c0-5.071-2.676-9.51-6.671-12.043c1.181-2.081,1.91-4.448,1.91-7.005
				c0-5.4-3.048-10.057-7.481-12.481l0.295-0.595c4.705-9.405,7.186-19.929,7.186-30.438c0-6.333-0.886-12.624-2.619-18.7
				L179.933,141c-2.276-7.962-3.471-16.181-3.667-24.457c2.829-2.176,4.686-5.562,4.686-9.4c0-3.876-1.886-7.29-4.762-9.467V86.324
				C187.505,80.329,195.239,68.438,195.239,54.762z M142.857,9.524c5.252,0,9.524,4.271,9.524,9.524h-19.048
				C133.333,13.795,137.605,9.524,142.857,9.524z M180.953,285.714L180.953,285.714h-76.191v-38.095h4.762h66.667h4.762V285.714z
				 M180.953,233.333c0,2.629-2.133,4.762-4.762,4.762h-66.667c-2.629,0-4.762-2.133-4.762-4.762c0-2.629,2.133-4.762,4.762-4.762
				h4.762h57.143h4.762C178.82,228.571,180.953,230.704,180.953,233.333z M109.524,214.286c0-2.629,2.133-4.762,4.762-4.762h57.143
				c2.629,0,4.762,2.133,4.762,4.762c-0.001,2.628-2.134,4.762-4.762,4.762h-57.143
				C111.657,219.048,109.524,216.915,109.524,214.286z M176.192,170.772c0,9.038-2.138,18.09-6.181,26.176L168.486,200h-51.257
				l-1.524-3.052c-4.043-8.086-6.181-17.133-6.181-26.176c0-5.448,0.757-10.857,2.257-16.086l3.162-11.071
				c2.286-8.01,3.629-16.252,4-24.567h47.833c0.371,8.314,1.71,16.562,4,24.567l3.167,11.076
				C175.434,159.915,176.192,165.329,176.192,170.772z M169.049,104.762c1.309,0,2.381,1.071,2.381,2.381s-1.071,2.381-2.381,2.381
				h-52.381c-1.31,0-2.381-1.071-2.381-2.381s1.071-2.381,2.381-2.381H169.049z M119.049,95.238v-4.762h7.143h33.333h7.143v4.762
				H119.049z M159.523,80.952H126.19c-14.438,0-26.19-11.752-26.19-26.19c0-14.438,11.752-26.19,26.19-26.19h33.333
				c14.438,0,26.19,11.752,26.19,26.19C185.713,69.2,173.961,80.952,159.523,80.952z"/>
			<path d="M66.667,119.048H19.048C8.544,119.048,0,127.59,0,138.095v19.048v4.762v4.762h0.167
				c0.371,8.314,1.652,16.557,3.943,24.571l2.329,8.143c2.048,7.176,3.086,14.595,3.086,22.048c0,7.448-1.038,14.867-3.086,22.043
				l-2.329,8.152C1.381,261.162,0,271.029,0,280.952v14.286h85.714v-14.286c0-9.924-1.381-19.79-4.105-29.329l-2.329-8.152
				c-2.052-7.176-3.09-14.595-3.09-22.043c0-7.452,1.038-14.871,3.086-22.043l2.329-8.152c2.29-8.01,3.571-16.257,3.943-24.567
				h0.167v-4.762v-4.762v-19.048C85.714,127.59,77.171,119.048,66.667,119.048z M76.192,280.952v4.762H9.524v-4.762
				c0-9.033,1.262-18.024,3.743-26.714l2.329-8.152c2.29-8.029,3.452-16.324,3.452-24.657c0-8.338-1.162-16.633-3.452-24.667
				l-2.329-8.143c-2.048-7.162-3.262-14.524-3.629-21.952h66.433c-0.362,7.429-1.581,14.79-3.629,21.948l-2.329,8.152
				c-2.286,8.029-3.448,16.324-3.448,24.662c0.002,8.333,1.164,16.628,3.454,24.657l2.329,8.152
				C74.929,262.928,76.192,271.919,76.192,280.952z M76.191,157.143H9.524v-19.048c0-5.252,4.271-9.524,9.524-9.524h47.619
				c5.252,0,9.524,4.271,9.524,9.524V157.143z"/>
			<circle cx="23.81" cy="271.429" r="4.762"/>
			<circle cx="42.857" cy="271.429" r="4.762"/>
			<circle cx="33.333" cy="257.143" r="4.762"/>
			<circle cx="52.381" cy="257.143" r="4.762"/>
			<circle cx="33.333" cy="228.571" r="4.762"/>
			<circle cx="52.381" cy="228.571" r="4.762"/>
			<circle cx="42.857" cy="242.857" r="4.762"/>
			<circle cx="23.81" cy="242.857" r="4.762"/>
			<circle cx="61.906" cy="242.857" r="4.762"/>
			<circle cx="33.333" cy="200" r="4.762"/>
			<circle cx="52.381" cy="200" r="4.762"/>
			<circle cx="42.857" cy="214.286" r="4.762"/>
			<circle cx="23.81" cy="214.286" r="4.762"/>
			<circle cx="61.906" cy="214.286" r="4.762"/>
			<circle cx="61.906" cy="271.429" r="4.762"/>
			<path d="M282.471,240.938l0.819-1.638c4.705-9.4,7.186-19.924,7.186-30.433c0-6.333-0.886-12.624-2.619-18.7l-3.162-11.071
				c-2.276-7.962-3.471-16.181-3.667-24.457c2.829-2.176,4.686-5.562,4.686-9.4c0-3.876-1.886-7.29-4.762-9.467v-12.114
				c8.576-5.51,14.286-15.11,14.286-26.038c0-16.262-12.614-29.61-28.571-30.833v-0.119c0-10.505-8.543-19.048-19.048-19.048
				c-10.505,0-19.048,8.543-19.048,19.048v0.119C212.614,68.01,200,81.352,200,97.619c0,10.929,5.71,20.533,14.286,26.038v12.114
				c-2.876,2.176-4.762,5.59-4.762,9.467c0,3.838,1.857,7.224,4.686,9.4c-0.19,8.276-1.39,16.495-3.667,24.457l-3.157,11.067
				c-1.738,6.081-2.624,12.371-2.624,18.705c0,10.51,2.481,21.033,7.186,30.438l0.819,1.638
				C205.214,244.938,200,252.786,200,261.905v33.333h95.238v-33.333C295.239,252.786,290.024,244.938,282.471,240.938z
				 M247.619,57.143c5.252,0,9.524,4.271,9.524,9.524h-19.048C238.096,61.414,242.367,57.143,247.619,57.143z M209.523,97.619
				c0-11.815,9.615-21.429,21.429-21.429h33.333c11.814,0,21.429,9.614,21.429,21.429s-9.614,21.429-21.429,21.429h-33.333
				C219.138,119.048,209.523,109.434,209.523,97.619z M273.81,142.857c1.31,0,2.381,1.071,2.381,2.381s-1.071,2.381-2.381,2.381
				h-52.381c-1.31,0-2.381-1.071-2.381-2.381s1.071-2.381,2.381-2.381H273.81z M223.81,133.333v-5.629
				c2.295,0.548,4.68,0.867,7.142,0.867h33.333c2.462,0,4.848-0.319,7.143-0.867v5.629H223.81z M216.542,192.781l3.162-11.071
				c2.286-8.01,3.629-16.252,4-24.567h47.833c0.371,8.314,1.71,16.562,4,24.567l3.167,11.076c1.49,5.224,2.248,10.638,2.248,16.081
				c0,9.038-2.138,18.09-6.181,26.176l-1.524,3.052h-1.819H223.81h-1.82l-1.524-3.052c-4.043-8.086-6.181-17.133-6.181-26.176
				C214.286,203.419,215.042,198.01,216.542,192.781z M285.716,285.714h-0.001h-76.19v-23.81c0-7.876,6.41-14.286,14.286-14.286
				h47.619c7.876,0,14.286,6.41,14.286,14.286V285.714z"/>
		</g>
	</g>
</g>
<g>
</g>
<g>
</g>
<g>
</g>
<g>
</g>
<g>
</g>
<g>
</g>
<g>
</g>
<g>
</g>
<g>
</g>
<g>
</g>
<g>
</g>
<g>
</g>
<g>
</g>
<g>
</g>
<g>
</g>
</svg>
