<svg id="Capa_1" data-name="Capa 1" xmlns="http://www.w3.org/2000/svg" viewBox="0 0 511.92 512" fill='#7a7a7a'><defs><style>.cls-1{fill:#f89e83;}</style></defs><title>contact</title><path d="M161.29,353a10,10,0,1,0,2.93,7.07A10.08,10.08,0,0,0,161.29,353Z" transform="translate(-0.04)"/><path d="M495.23,364.05l-72.3-72.29a57.12,57.12,0,0,0-80.78,0L316.93,317h0L306.86,327l-122-122,35.29-35.29a57.2,57.2,0,0,0,0-80.79L147.91,16.73a57.2,57.2,0,0,0-80.79,0L48.07,35.78c-64,64-64,168.24,0,232.28l70.25,70.25a10,10,0,0,0,14.14-14.14L62.21,253.91C10.45,202.16,6.33,120.53,49.83,64l76,76a10,10,0,0,0,14.14-14.15L63.12,49,81.26,30.87a37.19,37.19,0,0,1,52.51,0L206,103.11a37.17,37.17,0,0,1,0,52.5L163.64,198a10,10,0,0,0,0,14.14L299.79,348.26a10,10,0,0,0,14.14,0L324,338.18l124,124a144.26,144.26,0,0,1-189.9-12.38L186.79,378.5a10,10,0,0,0-14.14,14.14L243.9,463.9a164.25,164.25,0,0,0,232.28,0l19.05-19.05a57.13,57.13,0,0,0,0-80.79ZM481.09,430.7,463,448.84,338.15,324l18.14-18.14a37.11,37.11,0,0,1,52.5,0l72.3,72.3a37.13,37.13,0,0,1,0,52.5Z" transform="translate(-0.04)"/><path d="M164.2,150.1a10,10,0,1,0,2.93,7.07A10,10,0,0,0,164.2,150.1Z" transform="translate(-0.04)"/><path class="cls-1" d="M421.55,72.24A34.77,34.77,0,0,0,389.4,40.08a34.4,34.4,0,0,0-26.09,9.24,34.82,34.82,0,0,0-11,25.35,10,10,0,1,0,20,0A14.67,14.67,0,1,1,390.19,89,16.79,16.79,0,0,0,377,105.46v18a10,10,0,0,0,20,0V107.88A34.49,34.49,0,0,0,421.55,72.24Z" transform="translate(-0.04)"/><path class="cls-1" d="M394,152a10,10,0,1,0,2.93,7.08A10.07,10.07,0,0,0,394,152Z" transform="translate(-0.04)"/><path class="cls-1" d="M462,0H312a50.06,50.06,0,0,0-50,50V164a50.06,50.06,0,0,0,50,50h37.93l29.27,38.12a10,10,0,0,0,7.93,3.91h0a10,10,0,0,0,7.93-3.94l29-38.09H462a50.06,50.06,0,0,0,50-50V50A50.06,50.06,0,0,0,462,0Zm30,164h0a30,30,0,0,1-30,30H419.13a10,10,0,0,0-8,3.94l-24.11,31.63-24.31-31.66a10,10,0,0,0-7.93-3.91H312a30,30,0,0,1-30-30V50a30,30,0,0,1,30-30H462a30,30,0,0,1,30,30Z" transform="translate(-0.04)"/></svg>