<svg id="Layer_1" data-name="Layer 1" xmlns="http://www.w3.org/2000/svg" viewBox="0 0 476.9 488.87" fill='#7a7a7a'><defs><style>.cls-1{fill:#f89e83;}</style></defs><title>email</title><path d="M494.2,488V187c0-3.1-3.9-7-7.7-9.9L407.8,120V56.9a10.45,10.45,0,0,0-10.4-10.4H307.7L262,13.2a11.28,11.28,0,0,0-11.5,0L204.8,46.5H115.1a10.45,10.45,0,0,0-10.4,10.4v62.4L25,177.2c-4.7,2.9-7.7,6.7-7.7,9.9v303a10.47,10.47,0,0,0,9.6,10.4H483.7C490.4,500.4,494.2,495.2,494.2,488ZM474.4,205.7V469.3L302.3,331.5,474.4,205.7Zm-7.7-18.3-58.9,42.9V144.1l58.9,43.3ZM255.8,32.9l18.3,13.5H237.4l18.4-13.5ZM387,67.3V245.5L255.8,341.1,124.6,245.5V67.3ZM37.2,205.7,209.3,331.5,37.2,470.1Zm67.6,25.4-60.4-44,60.4-43.9ZM55.9,480.6,226,343.7l23.5,17.2c4.5,3.4,7.9,3.4,12.5,0l23.5-17.2L456.6,480.6Z" transform="translate(-17.3 -11.63)"/><rect class="cls-1" x="168.8" y="106.67" width="140.5" height="19.8"/><rect class="cls-1" x="168.8" y="170.17" width="140.5" height="19.8"/><rect class="cls-1" x="168.8" y="233.67" width="140.5" height="19.8"/></svg>