<svg id="Layer_1" data-name="Layer 1" xmlns="http://www.w3.org/2000/svg" fill='#7a7a7a' viewBox="0 0 512 512.01"><defs><style>.cls-1{fill:#f89e83;}</style></defs><title>open-book</title><path class="cls-1" d="M291.06,242.81a8.54,8.54,0,0,0,11.48,3.73c.51-.26,50.73-25.77,75.51-33.6a8.54,8.54,0,0,0-5.16-16.28c-26.09,8.25-76,33.6-78.1,34.67A8.54,8.54,0,0,0,291.06,242.81Z" transform="translate(0 0)"/><path class="cls-1" d="M298.68,145.07a8.53,8.53,0,0,0,3.86-.93c.51-.25,50.73-25.77,75.51-33.59a8.54,8.54,0,0,0-5.16-16.29c-26.09,8.26-76,33.6-78.1,34.68a8.53,8.53,0,0,0,3.89,16.13Z" transform="translate(0 0)"/><path d="M503.47,128a8.53,8.53,0,0,0-8.53,8.54v332.8a25.64,25.64,0,0,1-25.6,25.6H264.54V475.3c12.44-4.35,44.85-14.5,76.8-14.5,74.33,0,124.8,16.46,125.31,16.63a8.52,8.52,0,0,0,11.22-8.09V93.87a8.52,8.52,0,0,0-6.68-8.33S464.5,84.05,453.06,82A8.53,8.53,0,0,0,450,98.73c4.36.81,8,1.51,10.83,2.08V458c-19.34-5.07-62.27-14.26-119.47-14.26-37.18,0-73.7,12.21-85,16.35-10-4.44-40.4-16.35-77.13-16.35a575.37,575.37,0,0,0-128,14.61V100.47a561.82,561.82,0,0,1,128-15.13c31.11,0,57.8,9.68,68.27,14.06V435.2a8.53,8.53,0,0,0,12.93,7.32c.84-.51,85.39-51,160.43-76a8.54,8.54,0,0,0,5.84-8.1V8.54a8.55,8.55,0,0,0-11.54-8c-68.27,25.61-137.36,68.6-138,69a8.53,8.53,0,0,0,9,14.47c.64-.4,60.74-37.79,123.48-63V352.3c-58.25,20.24-119.06,53.29-145.07,68.08V93.87a8.55,8.55,0,0,0-4.71-7.64c-1.47-.72-36.44-18-80.62-18C102.09,68.27,42.81,85,40.32,85.67a8.54,8.54,0,0,0-6.19,8.2V469.34A8.53,8.53,0,0,0,45,477.54c.59-.16,59.59-16.74,134.19-16.74,31.2,0,57.86,9.72,68.27,14.08v20.06H42.67a25.63,25.63,0,0,1-25.6-25.6V136.54a8.54,8.54,0,0,0-17.07,0v332.8A42.72,42.72,0,0,0,42.67,512H469.34A42.72,42.72,0,0,0,512,469.34V136.54A8.53,8.53,0,0,0,503.47,128Z" transform="translate(0 0)"/><path class="cls-1" d="M291.06,191.61a8.54,8.54,0,0,0,11.48,3.73c.51-.26,50.73-25.77,75.51-33.6a8.54,8.54,0,0,0-5.16-16.28c-26.09,8.25-76,33.6-78.1,34.67A8.54,8.54,0,0,0,291.06,191.61Z" transform="translate(0 0)"/><path class="cls-1" d="M291.06,294a8.54,8.54,0,0,0,11.48,3.73c.51-.26,50.73-25.77,75.51-33.6a8.54,8.54,0,0,0-5.16-16.28c-26.09,8.25-76,33.6-78.1,34.67A8.54,8.54,0,0,0,291.06,294Z" transform="translate(0 0)"/><path class="cls-1" d="M206.75,158.37c-52.7-12.37-112.57,3.38-115.09,4.06a8.53,8.53,0,0,0,4.42,16.48c.57-.16,58.22-15.32,106.78-3.93a8.53,8.53,0,1,0,3.89-16.61Z" transform="translate(0 0)"/><path class="cls-1" d="M206.75,209.57c-52.7-12.36-112.57,3.38-115.09,4.06a8.53,8.53,0,0,0,4.42,16.48c.57-.16,58.22-15.32,106.78-3.93a8.53,8.53,0,1,0,3.89-16.61Z" transform="translate(0 0)"/><path class="cls-1" d="M291.06,345.21a8.54,8.54,0,0,0,11.48,3.73c.51-.26,50.73-25.77,75.51-33.6a8.54,8.54,0,0,0-5.16-16.28c-26.09,8.26-76,33.6-78.1,34.67A8.54,8.54,0,0,0,291.06,345.21Z" transform="translate(0 0)"/><path class="cls-1" d="M206.75,260.77c-52.7-12.36-112.57,3.37-115.09,4.06a8.53,8.53,0,1,0,4.42,16.48c.57-.16,58.22-15.32,106.78-3.93a8.53,8.53,0,1,0,3.89-16.61Z" transform="translate(0 0)"/><path class="cls-1" d="M206.75,363.17c-52.7-12.37-112.57,3.38-115.09,4.06a8.53,8.53,0,1,0,4.42,16.48c.57-.16,58.22-15.32,106.78-3.93a8.53,8.53,0,1,0,3.89-16.61Z" transform="translate(0 0)"/><path class="cls-1" d="M206.75,312C154.05,299.6,94.18,315.35,91.66,316a8.53,8.53,0,1,0,4.42,16.48c.57-.16,58.22-15.32,106.78-3.93A8.53,8.53,0,1,0,206.75,312Z" transform="translate(0 0)"/></svg>