<svg id="Layer_1" data-name="Layer 1" xmlns="http://www.w3.org/2000/svg" viewBox="0 0 512 512"><defs><style>.cls-1{fill:#f97919;}</style></defs><title>shopping-bag</title><path class="cls-1" d="M462,386a10,10,0,1,0-10-10A10,10,0,0,0,462,386Z"/><path class="cls-1" d="M462,346a10,10,0,0,0,10-10V256a10,10,0,0,0-20,0v80A10,10,0,0,0,462,346Z"/><path d="M10,366H20V502a10,10,0,0,0,10,10H482a30,30,0,0,0,30-30V110a10,10,0,0,0-10-10H426V90a90,90,0,0,0-180,0v10H170a10,10,0,0,0-10,10V216a50.25,50.25,0,0,0-19,30c-.34,0-.67-.06-1-.06s-.67,0-1,0a50,50,0,1,0-89,40H10A10,10,0,0,0,0,296v60A10,10,0,0,0,10,366Zm30,0H90V492H40Zm70,0h60V492H110ZM240,492H190V366h50ZM190,346V306h70v40Zm0-60-1,0a49.78,49.78,0,0,0-9-20V227.72A30,30,0,1,1,190,286Zm-50.58-20,8.65,1.1A30.09,30.09,0,0,1,168.29,286H111.74A30,30,0,0,1,139.42,266ZM170,306v40H110V306ZM482,492H260V452H492v30A10,10,0,0,1,482,492ZM266,90a70,70,0,0,1,140,0v10H266Zm-20,30v46H236a10,10,0,0,0,0,20h40a10,10,0,0,0,0-20H266V120H406v46H396a10,10,0,0,0,0,20h40a10,10,0,0,0,0-20H426V120h66V432H260V366h10a10,10,0,0,0,10-10V296a10,10,0,0,0-10-10H230a50,50,0,0,0-50-79V120ZM60,256a30,30,0,0,1,59.47-5.58A50.36,50.36,0,0,0,91,286c-.35,0-.69,0-1,0A30,30,0,0,1,60,256ZM20,306H90v40H20Z"/><rect class="cls-1" x="90" y="366" width="20" height="126"/><rect class="cls-1" x="170" y="366" width="20" height="126"/><rect class="cls-1" x="90" y="306" width="20" height="40"/><rect class="cls-1" x="170" y="306" width="20" height="40"/><path class="cls-1" d="M111.82,286a30,30,0,0,1,56.57,0H189a49.9,49.9,0,0,0-97.82,0Z"/><path class="cls-1" d="M190,206.11a49.9,49.9,0,0,0-49,40.62,50,50,0,0,1,19.46,4.38A30,30,0,1,1,190,286l-1.2,0,0,.06h41.05A49.9,49.9,0,0,0,190,206.11Z"/><path class="cls-1" d="M91,285.94c-.32,0-.65,0-1,0a30,30,0,1,1,29.55-35,49.81,49.81,0,0,1,19.47-4.3A49.89,49.89,0,1,0,50.13,286H91Z"/></svg>