<?xml version="1.0" encoding="utf-8"?>
<!-- Generator: Adobe Illustrator 22.1.0, SVG Export Plug-In . SVG Version: 6.00 Build 0)  -->
<svg version="1.1" id="Capa_1" xmlns="http://www.w3.org/2000/svg" xmlns:xlink="http://www.w3.org/1999/xlink" x="0px" y="0px"
	 viewBox="0 0 384 384" style="enable-background:new 0 0 384 384;" xml:space="preserve">
<style type="text/css">
	.st0{fill:#999999;}
</style>
<g>
	<g>
		<path class="st0" d="M331.9,17.3c-8.8,0-16,7.2-16,16v13.3C281.5,16.7,237.7,0,191,0C85.7,0,0,86,0,191.7c0,8.8,7.2,16,16,16
			s16-7.2,16-16C32,103.6,103.3,32,191,32c38.5,0,74.6,13.6,103.1,38.1h-14.7c-8.8,0-16,7.2-16,16s7.2,16,16,16h52.5
			c8.8,0,16-7.2,16-16V33.3C347.9,24.5,340.7,17.3,331.9,17.3z"/>
	</g>
</g>
<g>
	<g>
		<path class="st0" d="M368,176.3c-8.8,0-16,7.2-16,16c0,88-71.3,159.7-159,159.7c-38,0-73.8-13.3-102.1-37.2h15.4
			c8.8,0,16-7.2,16-16s-7.2-16-16-16H53.8c-0.1,0-0.3,0-0.4,0c-0.6,0-1.2,0.1-1.8,0.2c-0.4,0.1-0.9,0.1-1.3,0.2
			c-0.5,0.1-1,0.3-1.6,0.5c-0.5,0.2-1,0.3-1.4,0.5c-0.4,0.2-0.9,0.5-1.3,0.7c-0.5,0.3-1,0.6-1.5,0.9c-0.1,0.1-0.3,0.1-0.4,0.2
			c-0.3,0.2-0.5,0.5-0.7,0.7c-0.4,0.4-0.8,0.7-1.2,1.2c-0.4,0.4-0.7,0.8-1,1.2s-0.6,0.8-0.9,1.2c-0.3,0.4-0.5,0.9-0.8,1.4
			c-0.2,0.5-0.4,0.9-0.6,1.4c-0.2,0.5-0.3,1-0.5,1.5c-0.1,0.5-0.3,1-0.3,1.5c-0.1,0.6-0.1,1.1-0.2,1.7c0,0.3-0.1,0.6-0.1,1v52.7
			c0,8.8,7.2,16,16,16s16-7.2,16-16v-12.7c34.1,29,77.3,45.2,123.2,45.2c105.3,0,191-86,191-191.7C384,183.5,376.8,176.3,368,176.3z
			"/>
	</g>
</g>
</svg>
