<svg enable-background="new 0 0 100 100" height="512" viewBox="0 0 100 100" width="512" xmlns="http://www.w3.org/2000/svg"><path d="m24.504841 38.313797h50.990318v52.404564h-50.990318z" fill="#344d5b"/><path d="m18.798595 42.624394h11.412491v43.783375h-11.412491z" fill="#ededed"/><path d="m16.154327 39.728046h16.701029v4.304804h-16.701029z" fill="#dbd8dd"/><path d="m16.154327 84.999313h16.701029v4.304804h-16.701029z" fill="#dbd8dd"/><path d="m44.293755 42.624394h11.412491v43.783375h-11.412491z" fill="#ededed"/><path d="m41.190975 39.728046h17.618052v4.304804h-17.618052z" fill="#dbd8dd"/><path d="m41.190975 84.999313h17.618052v4.304804h-17.618052z" fill="#dbd8dd"/><path d="m69.78891 42.624394h11.412491v43.783375h-11.412491z" fill="#ededed"/><path d="m67.144646 39.728046h16.701029v4.304804h-16.701029z" fill="#dbd8dd"/><path d="m67.144646 84.999313h16.701029v4.304804h-16.701029z" fill="#dbd8dd"/><path d="m7.451653 89.101585h85.096695v5.898412h-85.096695z" fill="#b1b2b6"/><path d="m87.5627518 39.9305725h-75.1252899v-10.0577068l37.5626449-24.8728657 37.562645 24.8728657z" fill="#ededed"/><path d="m16.1543274 36.2136307v-4.3440857l33.8456726-22.4115563 33.8456726 22.4115563v4.3440857z" fill="#dbd8dd"/><circle cx="50" cy="25.512" fill="#d6b24e" r="7.1"/></svg>