<?xml version="1.0" encoding="UTF-8"?>
<!-- Generator: Adobe Illustrator 16.0.0, SVG Export Plug-In . SVG Version: 6.00 Build 0)  -->
<!DOCTYPE svg PUBLIC "-//W3C//DTD SVG 1.1//EN" "http://www.w3.org/Graphics/SVG/1.1/DTD/svg11.dtd">
<svg version="1.1" id="Layer_1" xmlns="http://www.w3.org/2000/svg" xmlns:xlink="http://www.w3.org/1999/xlink" x="0px" y="0px" width="1000px" height="860px" viewBox="0 0 1000 860" enable-background="new 0 0 1000 860" xml:space="preserve">
<g>
	<path fill-rule="evenodd" clip-rule="evenodd" d="M71.197,49.486c47.812,0.039,95.624,0.28,143.433-0.09   c7.518-0.06,10.471,2.367,12.965,9.214c10.698,29.372,22.312,58.411,33.07,87.764c2.369,6.465,5.707,8.084,12.227,8.079   c214.737-0.176,429.474-0.154,644.21-0.162c3.545,0,7.091,0,11.701,0c-4.947,17.525-9.496,33.83-14.156,50.103   c-27.271,95.261-54.627,190.498-81.725,285.808c-1.735,6.104-4.605,8.171-10.8,8.964c-69.826,8.945-139.609,18.232-209.401,27.443   c-61.48,8.115-122.958,16.243-184.435,24.38c-53.721,7.108-107.438,14.244-161.16,21.338c-3.306,0.437-6.645,0.625-11.317,1.053   c-34.803-148.624-69.574-297.111-104.607-446.717c-26.976,0-53.49,0-80.004,0C71.197,100.938,71.197,75.211,71.197,49.486z" style="fill: white;"/>
	<path fill-rule="evenodd" clip-rule="evenodd" d="M532.743,738.682c-36.336-0.007-72.674,0.121-109.007-0.143   c-5.625-0.041-8.173,1.543-10.201,6.971c-17.208,46.036-63.12,72.111-110.999,63.444c-45.974-8.321-79.917-48.565-80.797-95.796   c-0.899-48.192,32.128-89.149,79.858-99.03c47.138-9.761,94.973,17.011,111.836,63.113c2.359,6.452,5.402,8.146,11.963,8.124   c72.112-0.232,144.225-0.189,216.337-0.005c5.782,0.015,8.59-1.383,10.72-7.302c16.216-45.068,59.4-70.701,108.058-64.687   c42.715,5.279,78.406,42.41,83.756,87.134c5.752,48.101-26.526,94.825-73.893,106.963c-48.396,12.399-98.662-12.991-116.658-59.569   c-2.787-7.216-5.953-9.518-13.645-9.418C604.3,738.95,568.52,738.689,532.743,738.682z" style="fill: white;"/>
</g>
</svg>