<?xml version="1.0" encoding="utf-8"?>
<!-- Generator: Adobe Illustrator 16.0.0, SVG Export Plug-In . SVG Version: 6.00 Build 0)  -->
<!DOCTYPE svg PUBLIC "-//W3C//DTD SVG 1.1//EN" "http://www.w3.org/Graphics/SVG/1.1/DTD/svg11.dtd">
<svg version="1.1" id="Layer_1" xmlns="http://www.w3.org/2000/svg" xmlns:xlink="http://www.w3.org/1999/xlink" x="0px" y="0px"
	 width="595.279px" height="463px" viewBox="0 0 595.279 463" enable-background="new 0 0 595.279 463" xml:space="preserve">
<path d="M399.108,15.035c-48.704,0-87.938,39.234-87.938,87.938c0,48.705,39.234,87.939,87.938,87.939s87.938-39.234,87.938-87.939
	C487.047,54.269,447.813,15.035,399.108,15.035z M399.108,150.326c-25.705,0-47.353-21.646-47.353-47.353
	c0-25.705,21.646-47.352,47.353-47.352s47.353,21.647,47.353,47.352C446.46,128.68,424.814,150.326,399.108,150.326z"/>
<g>
	<rect x="473.518" y="82.681" width="121.763" height="40.587"/>
	<rect y="82.681" width="324.698" height="40.587"/>
</g>
<path d="M196.172,447.966c48.704,0,87.938-39.234,87.938-87.938c0-48.705-39.234-87.939-87.938-87.939
	c-48.705,0-87.939,39.234-87.939,87.939C108.233,408.731,147.467,447.966,196.172,447.966z M196.172,312.675
	c25.705,0,47.352,21.646,47.352,47.354c0,25.704-21.646,47.352-47.352,47.352s-47.353-21.646-47.353-47.352
	C148.82,334.321,170.467,312.675,196.172,312.675z"/>
<g>
	<rect y="339.734" width="121.762" height="40.587"/>
	<rect x="270.582" y="339.734" width="324.697" height="40.587"/>
</g>
</svg>
