<svg id="Capa_1" enable-background="new 0 0 512 512" height="512" viewBox="0 0 512 512" width="512" xmlns="http://www.w3.org/2000/svg"><path d="m416.666 200.834h-6.797l-26.091-52.179c-12.395-24.797-43.821-44.221-71.546-44.221h-144.599c-27.724 0-59.15 19.424-71.544 44.219l-26.093 52.181h-14.83c-30.418 0-55.166 24.747-55.166 55.166v48.201c0 30.418 24.748 55.166 55.166 55.166h18.95c6.753 27.629 31.707 48.199 61.387 48.199 29.679 0 54.631-20.57 61.384-48.199h118.23c6.753 27.629 31.706 48.199 61.386 48.199 29.679 0 54.631-20.57 61.384-48.199h18.946c30.42 0 55.168-24.748 55.168-55.166v-8.035c-.001-52.566-42.768-95.332-95.335-95.332zm-59.721-38.764 19.383 38.764h-121.392v-66.4h57.296c16.46 0 37.354 12.913 44.713 27.636zm-234.022-.002c7.358-14.721 28.251-27.634 44.71-27.634h57.303v66.4h-121.398zm12.58 215.498c-18.307 0-33.2-14.893-33.2-33.199 0-18.307 14.894-33.201 33.2-33.201 18.29 0 33.171 14.87 33.196 33.156 0 .015-.002.03-.002.045s.002.03.002.045c-.025 18.286-14.906 33.154-33.196 33.154zm240.999 0c-18.306 0-33.199-14.893-33.199-33.199 0-18.307 14.894-33.201 33.199-33.201s33.197 14.894 33.197 33.201c0 18.306-14.892 33.199-33.197 33.199zm105.498-73.365c0 13.876-11.29 25.166-25.168 25.166h-18.946c-6.753-27.63-31.705-48.201-61.384-48.201-29.68 0-54.633 20.571-61.386 48.201h-118.23c-6.752-27.63-31.705-48.201-61.384-48.201-29.68 0-54.634 20.571-61.387 48.201h-18.95c-13.875 0-25.165-11.289-25.165-25.166v-48.201c0-13.876 11.29-25.166 25.166-25.166h345.345c.033 0 .066.003.1.003.02 0 .04-.003.061-.003h15.994c24.787 0 46.394 13.875 57.462 34.266h-1.228c-8.284 0-15 6.716-15 15s6.716 15 15 15h9.072c.006.356.027.709.027 1.066v8.035z"/><path d="m264.031 265.1h-16.066c-8.284 0-15 6.716-15 15s6.716 15 15 15h16.066c8.284 0 15-6.716 15-15 0-8.285-6.716-15-15-15z"/></svg>