<?xml version="1.0" encoding="iso-8859-1"?>
<!-- Generator: Adobe Illustrator 19.0.0, SVG Export Plug-In . SVG Version: 6.00 Build 0)  -->
<svg version="1.1" id="Layer_1" xmlns="http://www.w3.org/2000/svg" xmlns:xlink="http://www.w3.org/1999/xlink" x="0px" y="0px"
	 viewBox="0 0 512 512" style="enable-background:new 0 0 512 512;" xml:space="preserve">
<path style="fill:#E55639;" d="M498.8,223.117l-30.535-30.535c34.565-46.438,21.417-102.843-12.722-138.256
	c-33.928-35.624-89.06-50.044-138.468-12.935L286.753,13.33c-17.6-17.6-46.014-17.6-63.615,0L13.2,223.117
	c-17.599,17.599-17.6,46.014,0,63.615l35,37.108c-15.904,44.317-1.06,84.605,26.93,110.901c29.261,27.99,72.52,40.288,110.901,26.93
	l37.108,37.108c8.694,8.694,20.357,13.146,31.807,13.147c11.451,0,23.114-4.453,31.807-13.147L498.8,286.731
	C516.4,269.131,516.4,240.717,498.8,223.117z M413.981,159.502L413.981,159.502c-17.566,17.567-46.048,17.567-63.615,0l0,0
	c-17.566-17.566-17.566-46.048,0-63.615l0,0c17.567-17.566,46.048-17.566,63.615,0l0,0
	C431.548,113.455,431.548,141.936,413.981,159.502z"/>
<path style="fill:#CF4529;" d="M498.8,223.117l-30.535-30.535c34.565-46.438,21.417-102.843-12.722-138.256l-41.561,41.561l0,0
	c17.567,17.567,17.567,46.048,0,63.615l0,0c-17.566,17.567-46.048,17.567-63.615,0l0,0L75.13,434.739
	c29.261,27.99,72.52,40.288,110.901,26.93l37.108,37.108c8.694,8.694,20.357,13.146,31.807,13.147
	c11.451,0,23.114-4.453,31.807-13.147L498.8,286.731C516.4,269.131,516.4,240.717,498.8,223.117z"/>
<g>
	<path style="fill:#E6EEFF;" d="M320.257,290.972l-114.081,12.722l-76.761,8.483c-0.636,0.211-1.06,0.211-1.696-0.001
		c-7.421,0.212-13.994-5.512-14.844-13.146c-1.06-8.272,5.09-15.693,13.147-16.54l114.081-12.722l76.761-8.483
		c8.483-0.849,15.692,5.089,16.54,13.147C334.465,282.702,328.314,290.123,320.257,290.972z"/>
	<path style="fill:#E6EEFF;" d="M180.73,244.321L180.73,244.321c-17.567-17.567-17.567-46.048,0-63.615l0,0
		c17.567-17.567,46.048-17.567,63.615,0l0,0c17.567,17.567,17.567,46.048,0,63.615l0,0
		C226.777,261.888,198.295,261.888,180.73,244.321z"/>
</g>
<path style="fill:#DAE2F2;" d="M201.934,392.754L201.934,392.754c-17.567-17.567-17.567-46.048,0-63.615l0,0
	c17.567-17.567,46.048-17.567,63.615,0l0,0c17.567,17.567,17.567,46.048,0,63.615l0,0
	C247.982,410.321,219.501,410.321,201.934,392.754z"/>
<path style="fill:#5C5F66;" d="M392.777,117.093L392.777,117.093c-5.856-5.856-5.856-15.349,0-21.205l91.422-91.422
	c5.856-5.856,15.349-5.856,21.205,0l0,0c5.856,5.856,5.856,15.349,0,21.205l-91.422,91.422
	C408.125,122.949,398.632,122.949,392.777,117.093z"/>
<g>
	<path style="fill:#FF6B4D;" d="M223.139,117.093l-21.204-21.205c-5.856-5.856-5.856-15.349,0-21.205l0,0
		c5.856-5.856,15.349-5.856,21.204,0l21.205,21.205c5.856,5.856,5.856,15.349,0,21.205l0,0
		C238.487,122.949,228.994,122.949,223.139,117.093z"/>
	<path style="fill:#FF6B4D;" d="M286.753,180.707l-21.205-21.204c-5.856-5.856-5.856-15.349,0-21.205l0,0
		c5.856-5.856,15.349-5.856,21.205,0l21.204,21.205c5.856,5.856,5.856,15.349,0,21.204l0,0
		C302.102,186.563,292.609,186.563,286.753,180.707z"/>
</g>
<g>
	<path style="fill:#E55639;" d="M350.367,244.321l-21.205-21.204c-5.856-5.856-5.856-15.349,0-21.205l0,0
		c5.856-5.856,15.349-5.856,21.205,0l21.205,21.205c5.856,5.856,5.856,15.349,0,21.204l0,0
		C365.716,250.177,356.222,250.177,350.367,244.321z"/>
	<path style="fill:#E55639;" d="M413.981,307.936l-21.204-21.204c-5.856-5.856-5.856-15.349,0-21.205l0,0
		c5.856-5.856,15.349-5.856,21.204,0l21.205,21.205c5.856,5.856,5.856,15.349,0,21.204l0,0
		C429.33,313.791,419.837,313.791,413.981,307.936z"/>
</g>
<path style="fill:#DAE2F2;" d="M320.257,290.972l-114.081,12.722l33.927-33.927l76.761-8.483c8.483-0.849,15.692,5.089,16.54,13.147
	C334.465,282.702,328.314,290.123,320.257,290.972z"/>
<path style="fill:#53565C;" d="M413.981,117.093l91.422-91.422c5.857-5.857,5.855-15.35,0-21.205L392.777,117.093
	C398.631,122.948,408.126,122.948,413.981,117.093z"/>
<g>
</g>
<g>
</g>
<g>
</g>
<g>
</g>
<g>
</g>
<g>
</g>
<g>
</g>
<g>
</g>
<g>
</g>
<g>
</g>
<g>
</g>
<g>
</g>
<g>
</g>
<g>
</g>
<g>
</g>
</svg>
