<?xml version="1.0" encoding="utf-8"?>
<!-- Generator: Adobe Illustrator 16.0.0, SVG Export Plug-In . SVG Version: 6.00 Build 0)  -->
<!DOCTYPE svg PUBLIC "-//W3C//DTD SVG 1.1//EN" "http://www.w3.org/Graphics/SVG/1.1/DTD/svg11.dtd">
<svg version="1.1" id="Layer_1" xmlns="http://www.w3.org/2000/svg" xmlns:xlink="http://www.w3.org/1999/xlink" x="0px" y="0px"
	 width="2000px" height="2000px" viewBox="0 0 2000 2000" enable-background="new 0 0 2000 2000" xml:space="preserve">
<g>
	<g>
		<path fill="#FF6F1F" d="M1930.469,1906.25c0,0,0-882.031,0-1175.781c0-12.109-15.234-27.344-30.078-38.672L1592.969,468.75
			V222.266c0-24.219-20.313-40.625-40.625-40.625h-350.391L1023.438,51.563c-12.109-8.203-32.422-8.203-44.922,0L800,181.641
			H449.609c-24.219,0-40.625,20.313-40.625,40.625v243.75L97.656,692.188c-18.359,11.328-30.078,26.172-30.078,38.672
			c0,295.703,0,1183.594,0,1183.594c0,23.047,18.359,39.063,37.5,40.625c1.172,0,1.953,0,3.125,0h1781.25
			C1915.625,1954.688,1930.469,1934.375,1930.469,1906.25z M1853.125,803.516v1029.688l-672.266-538.281L1853.125,803.516
			L1853.125,803.516z M1823.047,732.031l-230.078,167.578V562.891L1823.047,732.031L1823.047,732.031z M999.219,128.516
			l71.484,52.734H927.344L999.219,128.516L999.219,128.516z M1511.719,262.891v696.094l-512.5,373.438l-512.5-373.438V262.891
			H1511.719z M145.313,803.516l672.266,491.406l-672.266,541.406V803.516z M409.375,902.734L173.438,730.859l235.938-171.484
			V902.734z M218.359,1877.344l664.453-534.766l91.797,67.188c17.578,13.281,30.859,13.281,48.828,0l91.797-67.188l668.359,534.766
			H218.359L218.359,1877.344z"/>
		<rect x="726.953" y="462.109" fill="#FF6F1F" width="548.828" height="77.344"/>
		<rect x="726.953" y="710.156" fill="#FF6F1F" width="548.828" height="77.344"/>
		<rect x="726.953" y="958.203" fill="#FF6F1F" width="548.828" height="77.344"/>
	</g>
</g>
<g>
	<path d="M1900.391,690.797L1592.969,467.75v94.141l230.078,169.141l-230.078,167.578l-81.25,59.227v0.148l-512.5,373.438
		L409.375,901.734l-37.353-27.21L173.438,729.859l235.938-171.484v343.359l2.048-694.047c-1.587,4.369-2.438,8.973-2.438,13.578
		v243.75L97.656,691.188c-18.359,11.328-30.078,26.172-30.078,38.672c0,295.703,0,1183.594,0,1183.594
		c0,23.047,18.359,39.063,37.5,40.625c1.172,0,1.953,0,3.125,0h1781.25c26.172-0.391,41.016-20.703,41.016-48.828
		c0,0,0-882.031,0-1175.781C1930.469,717.359,1915.234,702.125,1900.391,690.797z M145.313,802.516l672.266,491.406
		l-672.266,541.406V802.516z M218.359,1876.344l664.453-534.766l91.797,67.188c17.578,13.281,30.859,13.281,48.828,0l91.797-67.188
		l668.359,534.766H218.359z M1853.125,1832.203l-672.266-538.281l672.266-491.406V1832.203z"/>
	<path d="M1560.4,181.5c-2.654-0.561-5.354-0.859-8.057-0.859h-350.391L1023.438,50.563c-12.109-8.203-32.422-8.203-44.922,0
		L800,180.641H449.609c-2.925,0-5.733,0.303-8.416,0.859H1560.4z M999.219,127.516l71.484,52.734H927.344L999.219,127.516z"/>
</g>
</svg>
