<?xml version="1.0" encoding="iso-8859-1"?>
<!-- Generator: Adobe Illustrator 18.0.0, SVG Export Plug-In . SVG Version: 6.00 Build 0)  -->
<!DOCTYPE svg PUBLIC "-//W3C//DTD SVG 1.1//EN" "http://www.w3.org/Graphics/SVG/1.1/DTD/svg11.dtd">
<svg version="1.1" id="Capa_1" xmlns="http://www.w3.org/2000/svg" xmlns:xlink="http://www.w3.org/1999/xlink" x="0px" y="0px"
	 viewBox="0 0 58.007 58.007" style="enable-background:new 0 0 58.007 58.007;" xml:space="preserve">
<g>
	<path d="M42.524,24.223c-1.993,0.338-3.992-0.775-4.747-2.647c-0.821-2.035,0.026-4.36,1.972-5.409l2.059-1.11l-2.226-0.721
		c-0.934-0.303-1.674-0.983-2.031-1.867c-0.326-0.809-0.318-1.696,0.023-2.499c0.341-0.803,0.975-1.424,1.784-1.751
		c0.371-0.149,0.774-0.228,1.198-0.229l1.837-0.011l-1.005-1.536C38.75,2.408,34.326,0,29.551,0h-1.095
		c-7.798,0-14.143,6.345-14.143,14.143V39h29.381V24.021L42.524,24.223z"/>
	<path d="M14.313,43.075c0,2.716,2.209,4.925,4.925,4.925h6.051v7.007c0,1.654,1.346,3,3,3h1c1.654,0,3-1.346,3-3V48h6.48
		c2.715,0,4.925-2.209,4.925-4.925V41H14.313V43.075z"/>
</g>
<g>
</g>
<g>
</g>
<g>
</g>
<g>
</g>
<g>
</g>
<g>
</g>
<g>
</g>
<g>
</g>
<g>
</g>
<g>
</g>
<g>
</g>
<g>
</g>
<g>
</g>
<g>
</g>
<g>
</g>
</svg>
