<?xml version="1.0" encoding="iso-8859-1"?>
<!-- Generator: Adobe Illustrator 18.0.0, SVG Export Plug-In . SVG Version: 6.00 Build 0)  -->
<!DOCTYPE svg PUBLIC "-//W3C//DTD SVG 1.1//EN" "http://www.w3.org/Graphics/SVG/1.1/DTD/svg11.dtd">
<svg version="1.1" id="Capa_1" xmlns="http://www.w3.org/2000/svg" xmlns:xlink="http://www.w3.org/1999/xlink" x="0px" y="0px"
	 viewBox="0 0 292.125 292.125" style="enable-background:new 0 0 292.125 292.125;" xml:space="preserve">
<path d="M272.918,149.802l-80.023-45.796C202.451,93.029,208.25,78.696,208.25,63c0-0.867-0.03-1.727-0.065-2.584
	c13.986-2.771,24.565-15.129,24.565-29.916c0-16.817-13.683-30.5-30.5-30.5c-9.094,0-17.266,4.006-22.858,10.339
	C169.678,4.12,158.141,0.5,145.75,0.5c-12.254,0-23.674,3.54-33.32,9.633C106.842,3.917,98.746,0,89.75,0
	c-16.817,0-30.5,13.683-30.5,30.5c0,14.61,10.33,26.85,24.068,29.812C83.28,61.204,83.25,62.099,83.25,63
	c0,15.81,5.883,30.237,15.562,41.245l-79.604,45.557c-11.983,6.858-16.138,22.132-9.28,34.116
	c4.617,8.067,13.048,12.586,21.722,12.586c4.21,0,8.479-1.064,12.395-3.306l12.134-6.944c-1.471,3.993-2.763,7.815-3.878,11.416
	C40.234,207.417,32.5,222.319,32.5,239c0,29.293,23.832,53.125,53.125,53.125c19.045,0,35.773-10.079,45.153-25.178
	c4.961,0.363,10.044,0.553,15.222,0.553c5.219,0,10.342-0.193,15.341-0.563c9.379,15.104,26.11,25.188,45.159,25.188
	c29.293,0,53.125-23.832,53.125-53.125c0-16.756-7.807-31.716-19.964-41.46c-1.114-3.59-2.404-7.398-3.871-11.376l12.292,7.034
	c3.917,2.241,8.184,3.306,12.395,3.306c8.673,0,17.104-4.52,21.722-12.586C289.056,171.934,284.901,156.66,272.918,149.802z
	 M202.25,15c8.547,0,15.5,6.953,15.5,15.5c0,7.334-5.125,13.48-11.979,15.081c-2.828-9.76-7.967-18.53-14.792-25.69
	C193.809,16.889,197.809,15,202.25,15z M173.03,39.231c0.026,0,0.053-0.004,0.079-0.004c4.341,0,7.859,3.519,7.859,7.859
	c0,1.489-0.422,2.876-1.141,4.063c-1.377,2.273-3.867,3.797-6.719,3.797c-4.341,0-7.859-3.519-7.859-7.859
	C165.25,42.772,168.727,39.274,173.03,39.231z M145.75,60.181c8.611,0,15.592,4.061,15.592,9.069s-6.98,9.069-15.592,9.069
	s-15.592-4.061-15.592-9.069S137.139,60.181,145.75,60.181z M118.891,39.228c4.341,0,7.859,3.519,7.859,7.859
	s-3.519,7.859-7.859,7.859c-4.341,0-7.859-3.519-7.859-7.859S114.55,39.228,118.891,39.228z M85.763,45.461
	C79.146,43.695,74.25,37.666,74.25,30.5c0-8.547,6.953-15.5,15.5-15.5c4.312,0,8.214,1.772,11.026,4.623
	C93.852,26.802,88.634,35.627,85.763,45.461z M85.625,269.125C69.014,269.125,55.5,255.611,55.5,239s13.514-30.125,30.125-30.125
	S115.75,222.389,115.75,239S102.236,269.125,85.625,269.125z M156.516,221.013c-3.389,0.35-6.904,0.539-10.516,0.539
	c-3.564,0-7.037-0.185-10.386-0.525c-5.889-16.327-19.559-28.965-36.513-33.415c6.138-20.472,24.812-57.163,46.898-57.163
	c22.099,0,40.781,36.732,46.908,57.196C176.012,192.12,162.393,204.73,156.516,221.013z M206.5,269.125
	c-16.611,0-30.125-13.514-30.125-30.125s13.514-30.125,30.125-30.125s30.125,13.514,30.125,30.125S223.111,269.125,206.5,269.125z"
	/>
<g>
</g>
<g>
</g>
<g>
</g>
<g>
</g>
<g>
</g>
<g>
</g>
<g>
</g>
<g>
</g>
<g>
</g>
<g>
</g>
<g>
</g>
<g>
</g>
<g>
</g>
<g>
</g>
<g>
</g>
</svg>
