<?xml version="1.0" encoding="utf-8"?>
<!-- Generator: Adobe Illustrator 16.0.0, SVG Export Plug-In . SVG Version: 6.00 Build 0)  -->
<!DOCTYPE svg PUBLIC "-//W3C//DTD SVG 1.1//EN" "http://www.w3.org/Graphics/SVG/1.1/DTD/svg11.dtd">
<svg version="1.1" id="Layer_1" xmlns="http://www.w3.org/2000/svg" xmlns:xlink="http://www.w3.org/1999/xlink" x="0px" y="0px"
	 width="500px" height="500px" viewBox="0 0 500 500" enable-background="new 0 0 500 500" xml:space="preserve">
<polygon fill="#EFEFEF" points="449.451,63.999 404.992,63.999 404.992,63.999 92.342,63.999 92.342,473 404.992,473 
	404.992,168.254 449.451,168.254 "/>
<g>
	<path fill="#999999" d="M371.384,156.104h-14.728v115.705h14.728c6.473,0,11.721-5.248,11.721-11.721v-92.263
		C383.104,161.352,377.86,156.104,371.384,156.104z"/>
	<path fill="#999999" d="M371.384,285.213h-14.728v115.703h14.728c6.473,0,11.721-5.248,11.721-11.721v-92.268
		C383.104,290.461,377.86,285.213,371.384,285.213z"/>
	<path fill="#EFEFEF" d="M432.409,192.576h-21.389v116.75h21.389c9.4,0,17.022-5.295,17.022-11.826v-93.097
		C449.432,197.872,441.815,192.576,432.409,192.576z"/>
	<path fill="#EFEFEF" d="M432.409,322.85h-21.389V439.6h21.389c9.4,0,17.022-5.297,17.022-11.826v-93.102
		C449.432,328.146,441.815,322.85,432.409,322.85z"/>
	<path fill="#565656" d="M379.304,27H62.152c-6.412,0-11.604,5.195-11.604,11.604v376.789c0,6.412,5.192,11.604,11.604,11.604
		h275.432c6.412,0,11.604-5.195,11.604-11.604V142.705H379.3c6.473,0,11.721-5.252,11.721-11.72V38.72
		C391.024,32.249,385.776,27,379.304,27z M375.396,127.081h-41.832v284.296H66.173V42.625h309.224V127.081z"/>
	<linearGradient id="SVGID_1_" gradientUnits="userSpaceOnUse" x1="111.8408" y1="227.001" x2="287.5527" y2="227.001">
		<stop  offset="0" style="stop-color:#D40035"/>
		<stop  offset="1" style="stop-color:#FF4A69"/>
	</linearGradient>
	<path fill="url(#SVGID_1_)" d="M287.527,314.691c1.05-54.223-30.781-74.443-42.192-81.373
		c8.036-10.182,12.524-22.901,12.524-35.986c0-31.995-26.027-58.022-58.022-58.022c-31.995,0-58.022,26.031-58.022,58.022
		c0,13.084,4.488,25.804,12.525,35.986c-11.412,6.93-46.107,36.21-42.192,81.373H287.527z M175.748,236.736
		c-17.281-12.578-21.144-26.758-21.144-39.403c0-24.944,20.288-45.232,45.232-45.232s45.235,20.288,45.235,45.232
		c0,12.649-3.498,26.097-21.149,39.403c0,0,48.507,16.049,50.54,65.168H125.212C128.757,254.406,175.748,236.736,175.748,236.736z"
		/>
</g>
</svg>
