<?xml version="1.0" encoding="utf-8"?>
<!-- Generator: Adobe Illustrator 16.0.0, SVG Export Plug-In . SVG Version: 6.00 Build 0)  -->
<!DOCTYPE svg PUBLIC "-//W3C//DTD SVG 1.1//EN" "http://www.w3.org/Graphics/SVG/1.1/DTD/svg11.dtd">
<svg version="1.1" id="Layer_1" xmlns="http://www.w3.org/2000/svg" xmlns:xlink="http://www.w3.org/1999/xlink" x="0px" y="0px"
	 width="380px" height="393px" viewBox="64.5 10.5 380 393" enable-background="new 64.5 10.5 380 393" xml:space="preserve">
<path fill="#EFEFEF" d="M411.75,298.25l-16.641-42.803c23.55-21.205,38.359-51.927,38.359-86.111
	c0-63.98-51.866-115.847-115.847-115.847c-56.136,0-102.94,39.929-113.576,92.933c-55.276,12.424-96.572,61.8-96.572,120.827
	c0,28.001,9.297,53.828,24.967,74.573l-0.017-0.014c0,0-23.091,53.191-23.091,54.191s67.505-17.501,67.505-17.501l-0.024-0.02
	c16.448,8.075,34.945,12.616,54.505,12.616c64.381,0,117.281-49.128,123.274-111.939c2.232-0.752,4.433-1.575,6.602-2.456
	L411.75,298.25z"/>
<path fill="#565656" d="M298.225,21.212c-60.62,0-113.138,42.048-126.779,100.568c-57.275,13.724-100.028,65.226-100.028,126.65
	c0,24.442,6.784,48.158,19.643,68.806l-16.434,49.303c-0.854,2.566-0.188,5.398,1.726,7.311c1.912,1.91,4.729,2.58,7.311,1.723
	l49.306-16.435c20.651,12.87,44.36,19.649,68.806,19.649c61.605,0,113.243-43.003,126.781-100.538
	c13.571-3.212,26.496-8.487,38.446-15.958l49.323,16.42c2.553,0.852,5.398,0.182,7.307-1.73c1.911-1.91,2.581-4.742,1.727-7.303
	l-16.417-49.337c12.859-20.619,19.64-44.315,19.64-68.771C428.582,79.688,370.104,21.212,298.225,21.212z M201.775,364.502
	c-22.81,0-44.901-6.634-63.888-19.176c-1.183-0.781-2.553-1.186-3.938-1.186c-0.761,0-1.521,0.119-2.26,0.369l-38.993,12.996
	l12.999-38.993c0.694-2.085,0.391-4.366-0.816-6.201c-12.545-18.979-19.176-41.071-19.176-63.881
	c0-64,52.068-116.072,116.072-116.072c64.003,0,116.071,52.072,116.071,116.072C317.847,312.43,265.778,364.502,201.775,364.502z
	 M395.128,215.416c-1.211,1.828-1.514,4.116-0.82,6.194l12.992,39.035l-39.031-12.995c-2.082-0.684-4.37-0.384-6.204,0.83
	c-9.603,6.366-19.926,11.157-30.775,14.366c0.523-4.74,0.844-9.539,0.844-14.415c0-71.882-58.479-130.357-130.357-130.357
	c-5.068,0-10.047,0.363-14.966,0.928c14.214-48.954,59.528-83.503,111.416-83.503c64.003,0,116.071,52.072,116.071,116.071
	C414.296,174.386,407.67,196.463,395.128,215.416z"/>
<g>
	<linearGradient id="SVGID_1_" gradientUnits="userSpaceOnUse" x1="127.6753" y1="204.5967" x2="275.875" y2="204.5967">
		<stop  offset="0" style="stop-color:#D40035"/>
		<stop  offset="1" style="stop-color:#FF4A69"/>
	</linearGradient>
	<path fill="url(#SVGID_1_)" d="M134.818,211.74h133.915c3.945,0,7.143-3.195,7.143-7.143c0-3.948-3.197-7.143-7.143-7.143H134.818
		c-3.944,0-7.143,3.195-7.143,7.143C127.675,208.545,130.874,211.74,134.818,211.74z"/>
	<linearGradient id="SVGID_2_" gradientUnits="userSpaceOnUse" x1="127.6753" y1="248.4307" x2="275.875" y2="248.4307">
		<stop  offset="0" style="stop-color:#D40035"/>
		<stop  offset="1" style="stop-color:#FF4A69"/>
	</linearGradient>
	<path fill="url(#SVGID_2_)" d="M268.732,241.288H134.818c-3.944,0-7.143,3.195-7.143,7.143s3.198,7.143,7.143,7.143h133.915
		c3.945,0,7.143-3.194,7.143-7.143S272.678,241.288,268.732,241.288z"/>
	<linearGradient id="SVGID_3_" gradientUnits="userSpaceOnUse" x1="127.6753" y1="292.2578" x2="275.875" y2="292.2578">
		<stop  offset="0" style="stop-color:#D40035"/>
		<stop  offset="1" style="stop-color:#FF4A69"/>
	</linearGradient>
	<path fill="url(#SVGID_3_)" d="M268.732,285.114H134.818c-3.944,0-7.143,3.194-7.143,7.144c0,3.947,3.198,7.143,7.143,7.143
		h133.915c3.945,0,7.143-3.195,7.143-7.143C275.875,288.309,272.678,285.114,268.732,285.114z"/>
</g>
<g>
	<path fill="#999999" d="M408.942,220.34c12.859-20.619,19.64-44.315,19.64-68.771c0-71.882-58.479-130.357-130.357-130.357
		c-60.39,0-112.735,41.732-126.617,99.906c4.999-1.095,10.101-1.909,15.295-2.417c14.313-48.793,59.541-83.203,111.322-83.203
		c64.003,0,116.071,52.072,116.071,116.071c0,22.817-6.626,44.894-19.168,63.846c-1.211,1.828-1.514,4.116-0.82,6.194l12.992,39.035
		l-39.031-12.995c-2.082-0.684-4.37-0.384-6.204,0.83c-9.603,6.366-19.926,11.157-30.775,14.366
		c0.523-4.74,0.844-9.539,0.844-14.415c0-71.882-58.479-130.357-130.357-130.357c-0.209,0-0.416,0.01-0.625,0.011
		c71.925,0.708,130.016,59.224,130.016,131.316c0,24.916-6.939,48.212-18.989,68.061c7.465-11.923,13.065-25.131,16.379-39.212
		c13.571-3.212,26.496-8.487,38.446-15.958l49.323,16.42c2.553,0.852,5.398,0.182,7.307-1.73c1.911-1.91,2.581-4.742,1.727-7.303
		L408.942,220.34z"/>
	<path fill="#999999" d="M311.882,317.937c-0.067,0.109-0.136,0.217-0.203,0.326C311.747,318.154,311.813,318.045,311.882,317.937z"
		/>
</g>
</svg>
