<?xml version="1.0" encoding="utf-8"?>
<!-- Generator: Adobe Illustrator 16.0.0, SVG Export Plug-In . SVG Version: 6.00 Build 0)  -->
<!DOCTYPE svg PUBLIC "-//W3C//DTD SVG 1.1//EN" "http://www.w3.org/Graphics/SVG/1.1/DTD/svg11.dtd">
<svg version="1.1" id="Layer_1" xmlns="http://www.w3.org/2000/svg" xmlns:xlink="http://www.w3.org/1999/xlink" x="0px" y="0px"
	 width="500px" height="500px" viewBox="0 0 500 500" enable-background="new 0 0 500 500" xml:space="preserve">
<g>
	<path d="M21142.4,9600.4v-8c0-11.201-20-16-38.801-16s-38.801,5.201-38.801,16v8c0,7.201,2.801,14.4,8,19.6l20,19.6
		c1.199,1.201,1.6,2.4,1.6,4v25.6c0,1.6,0.801,2.801,2.4,3.199l11.6,3.602c2,0.398,4-0.801,4-3.201V9644c0-1.602,0.801-2.801,1.6-4
		l20.4-20C21139.6,9614.801,21142.4,9607.6,21142.4,9600.4z M21103.6,9600c-19.199,0-29.6-5.199-30-7.199l0,0
		c0.4-2,10.801-7.201,30-7.201s29.199,5.201,30,7.201C21132.801,9594.801,21122.801,9600,21103.6,9600z"/>
	<path d="M21123.6,9641.199c-2.4,0-4,1.602-4,4c0,2.402,1.6,4,4,4h17.199c2.4,0,4-1.598,4-4c0-2.398-1.6-4-4-4H21123.6z"/>
	<path d="M21140.801,9654.801h-17.199c-2.4,0-4,1.598-4,4c0,2.398,1.6,4,4,4h17.199c2.4,0,4-1.602,4-4
		C21144.801,9656.4,21143.199,9654.801,21140.801,9654.801z"/>
	<path d="M21140.801,9668h-17.199c-2.4,0-4,1.6-4,4s1.6,4,4,4h17.199c2.4,0,4-1.6,4-4C21144.801,9670,21143.199,9668,21140.801,9668
		z"/>
</g>
<polygon fill="#EFEFEF" points="366,63.031 366,222.731 401.808,260.001 441.54,225.192 442.4,63.432 429.924,46.984 379.5,46.231 
	"/>
<rect x="112.667" y="97.241" fill="#EFEFEF" width="282.5" height="343.926"/>
<linearGradient id="SVGID_1_" gradientUnits="userSpaceOnUse" x1="155.958" y1="163.0059" x2="262.0225" y2="163.0059">
	<stop  offset="0" style="stop-color:#D40035"/>
	<stop  offset="1" style="stop-color:#FF4A69"/>
</linearGradient>
<path fill="url(#SVGID_1_)" d="M214.4,204.801l39.6-39.6c11.2-11.2,10.8-30-2-40.4c-10.8-9.2-27.2-7.6-37.6,2.8l-5.601,5.6
	l-6.399-6.4c-11.2-11.2-30-10.8-40.4,2c-9.2,11.2-7.6,27.2,2.8,37.601l38.8,38.8C206.4,208.001,211.2,208.001,214.4,204.801z"/>
<path fill="#565656" d="M338.4,382.401H79.2V72.801h223.2v-21.6h-228c-9.2,0-16.801,7.6-16.801,16.8v319.2
	c0,9.2,7.601,16.8,16.801,16.8h268.8c9.2,0,16.8-7.6,16.8-16.8V257.601c-7.6,0-15.2-2.399-21.6-7.199V382.401L338.4,382.401z"/>
<path fill="#999999" d="M398.4,41.201c0-4.4-1.601-8.8-5.2-12c-3.2-3.2-7.601-5.2-12-5.2h-42c-4.4,0-8.8,1.6-12,4.8l0,0
	c-3.2,3.2-5.2,7.6-5.2,12v156c0,4,1.6,8.4,4.4,11.2l21.199,24c3.2,3.6,8,6,12.801,6c4.399,0,8.8-2,12-5.2
	c0.399-0.399,0.399-0.399,0.8-0.8l21.2-24c2.8-3.2,4.399-7.2,4.399-11.2L398.4,41.201z M376.8,45.601v18.8h-33.6v-18.8H376.8z
	 M376.8,85.601v78h-33.6v-78H376.8z M360,214.401l-16.8-19.2v-10h33.6v10.399L360,214.401z"/>
<path fill="#999999" d="M279.6,249.201H138.4c-6,0-10.801,4.8-10.801,10.8s4.801,10.8,10.801,10.8H279.6c6,0,10.801-4.8,10.801-10.8
	S285.6,249.201,279.6,249.201z"/>
<path fill="#999999" d="M279.6,313.201H138.4c-6,0-10.801,4.8-10.801,10.8s4.801,10.8,10.801,10.8H279.6c6,0,10.801-4.8,10.801-10.8
	S285.6,313.201,279.6,313.201z"/>
</svg>
