<svg height="512pt" viewBox="-13 0 512 512" width="512pt" xmlns="http://www.w3.org/2000/svg"><path d="m15.03125 85.167969h70.136719v-70.136719h165.828125v-15.03125h-176.457032l-74.539062 74.539062v311.714844h15.03125zm55.105469-59.511719v44.480469h-44.480469zm0 0"/><path d="m350.683594 95.691406h15.03125v-95.691406h-99.691406v15.03125h84.660156zm0 0"/><path d="m482.992188 332.039062-14.617188 3.5c1.691406 7.050782 2.542969 14.335938 2.542969 21.660157 0 22.851562-8.316407 43.796875-22.078125 59.972656l-63.085938-63.085937v-89.265626c25.046875 2.015626 48.140625 14.050782 64.238282 33.714844l11.632812-9.523437c-20.566406-25.117188-50.957031-39.523438-83.386719-39.523438-4.234375 0-8.414062.253907-12.523437.730469v-139.496094h-15.03125v142.34375c-46.085938 12.203125-80.15625 54.261719-80.15625 104.132813 0 49.867187 34.070312 91.925781 80.15625 104.128906v35.640625h-335.652344v-95.683594h-15.03125v110.714844h365.714844v-47.824219c4.109375.476563 8.289062.730469 12.523437.730469 59.390625 0 107.710938-48.316406 107.710938-107.707031 0-8.5-.992188-16.964844-2.957031-25.160157zm-112.269532-67.21875v84.863282h-84.859375c3.636719-45.125 39.738281-81.222656 84.859375-84.863282zm7.515625 185.058594c-48.574219 0-88.535156-37.5625-92.375-85.167968h89.261719l63.085938 63.085937c-16.175782 13.761719-37.121094 22.082031-59.972657 22.082031zm0 0"/><path d="m464.136719 322.328125 13.921875-5.660156c-2.019532-4.96875-4.433594-9.828125-7.179688-14.445313l-12.917968 7.679688c2.363281 3.972656 4.441406 8.152344 6.175781 12.425781zm0 0"/><path d="m260.507812 264.515625h-42.582031v15.03125h27.554688v35.066406h-185.363281v-35.066406h142.777343v-15.03125h-157.804687v65.128906h215.417968zm0 0"/><path d="m333.152344 233.457031v-15.03125h-17.535156v-68.132812h-55.109376v68.132812h-15.027343v-98.191406h-55.109375v98.191406h-15.027344v-128.25h-55.109375v128.25h-15.027344v-98.191406h-55.109375v98.191406h-17.535156v15.03125zm-57.613282-68.132812h25.046876v53.101562h-25.046876zm-185.363281 53.101562h-25.046875v-83.160156h25.046875zm70.136719 0h-25.046875v-113.21875h25.046875zm70.136719 0h-25.046875v-83.160156h25.046875zm0 0"/><path d="m308.101562 53.105469c-12.585937 0-23.222656 8.488281-26.503906 20.039062h-39.730468l-20.238282 20.234375 10.628906 10.628906 15.832032-15.835937h33.507812c3.28125 11.550781 13.917969 20.039063 26.503906 20.039063 15.191407 0 27.554688-12.359376 27.554688-27.554688 0-15.191406-12.363281-27.550781-27.554688-27.550781zm0 40.078125c-6.90625 0-12.523437-5.621094-12.523437-12.527344s5.617187-12.523438 12.523437-12.523438 12.523438 5.617188 12.523438 12.523438-5.617188 12.527344-12.523438 12.527344zm0 0"/><path d="m94.683594 350.683594h130.253906v15.03125h-130.253906zm0 0"/><path d="m64.625 350.683594h15.03125v15.03125h-15.03125zm0 0"/><path d="m94.683594 380.742188h100.195312v15.03125h-100.195312zm0 0"/><path d="m64.625 380.742188h15.03125v15.03125h-15.03125zm0 0"/><path d="m94.683594 410.800781h150.292968v15.03125h-150.292968zm0 0"/><path d="m64.625 410.800781h15.03125v15.03125h-15.03125zm0 0"/><path d="m64.625 440.859375h15.03125v15.03125h-15.03125zm0 0"/><path d="m94.683594 440.859375h120.234375v15.03125h-120.234375zm0 0"/></svg>