<svg height="512pt" viewBox="0 -48 512 512" width="512pt" xmlns="http://www.w3.org/2000/svg"><path d="m512 153.789062v-83.652343h-43.085938v-56.109375h-67.628906v15.03125h52.601563v15.027344h-295.578125v-15.027344h227.945312v-15.03125h-273.03125v56.109375h-28.054687v-70.136719h-42.585938c-23.480469 0-42.582031 19.101562-42.582031 42.582031v330.648438c0 23.480469 19.101562 42.582031 42.582031 42.582031h469.417969v-246.992188h-15.03125v231.960938h-454.386719c-15.191406 0-27.550781-12.359375-27.550781-27.550781 0-7.363281 2.863281-14.28125 8.066406-19.484375s12.125-8.070313 19.484375-8.070313h42.585938v-62.621093h-15.03125v47.589843h-27.554688c-10.207031 0-19.867187 3.566407-27.550781 10.109375v-298.171875c0-15.191406 12.359375-27.550781 27.550781-27.550781h27.554688v252.992188h15.03125v-182.855469h28.054687v161.8125h15.027344v-187.863281h325.636719v245.476562h-325.636719v-42.582031h-15.027344v57.613281h355.691406v-234.457031h28.054688v68.621093zm-368.71875-109.703124h-15.03125v-15.027344h15.03125zm0 0"/><path d="m291.070312 249.488281c-15.8125 0-31.191406-5.570312-43.308593-15.679687l-9.628907 11.539062c14.8125 12.359375 33.613282 19.167969 52.9375 19.167969 45.578126 0 82.660157-37.082031 82.660157-82.660156 0-19.039063-6.628907-37.621094-18.667969-52.328125l-11.628906 9.519531c9.84375 12.027344 15.265625 27.230469 15.265625 42.808594 0 37.292969-30.335938 67.632812-67.628907 67.632812zm0 0"/><path d="m208.40625 181.855469c0 18.753906 6.457031 37.121093 18.175781 51.714843l11.71875-9.40625c-9.722656-12.109374-14.863281-26.742187-14.863281-42.308593 0-37.292969 30.339844-67.632813 67.632812-67.632813 15.578126 0 30.78125 5.421875 42.808594 15.269532l9.519532-11.628907c-14.707032-12.039062-33.289063-18.667969-52.328126-18.667969-45.582031 0-82.664062 37.082032-82.664062 82.660157zm0 0"/><path d="m220.929688 335.65625h80.160156v15.027344h-80.160156zm0 0"/><path d="m160.8125 335.65625h15.03125v15.027344h-15.03125zm0 0"/><path d="m190.871094 335.65625h15.03125v15.027344h-15.03125zm0 0"/><path d="m160.8125 365.714844h60.117188v15.027344h-60.117188zm0 0"/><path d="m130.753906 365.714844h15.03125v15.027344h-15.03125zm0 0"/><path d="m438.855469 112.71875v-37.570312h-37.570313v15.027343h22.542969v22.542969zm0 0"/><path d="m320.824219 151.492188-44.785157 44.785156-16.730468-16.730469-10.625 10.628906 27.355468 27.355469 55.410157-55.410156zm0 0"/></svg>