<svg height="512pt" viewBox="-2 0 512 512.001" width="512pt" xmlns="http://www.w3.org/2000/svg"><path d="m254.191406 134.566406c-66.957031 0-121.433594 54.476563-121.433594 121.433594 0 66.960938 54.476563 121.4375 121.433594 121.4375 66.960938 0 121.4375-54.476562 121.4375-121.4375 0-66.957031-54.476562-121.433594-121.4375-121.433594zm-.367187 218.671875-26.578125-13.917969 35.671875-68.109374h-67.035157l58.675782-112.03125 26.578125 13.921874-35.671875 68.105469h67.035156zm0 0"/><path d="m471.238281 256c0-15.820312-1.710937-31.546875-5.09375-46.898438l42.238281-24.046874-63.445312-111.4375-42.273438 24.070312c-24.101562-22.625-52.902343-39.382812-84.359374-49.089844v-48.597656h-128.230469v48.597656c-31.453125 9.707032-60.257813 26.46875-84.355469 49.089844l-42.273438-24.070312-63.445312 111.4375 42.238281 24.046874c-3.382812 15.351563-5.09375 31.078126-5.09375 46.898438s1.710938 31.546875 5.09375 46.898438l-42.238281 24.046874 63.445312 111.4375 42.273438-24.070312c24.101562 22.625 52.902344 39.382812 84.359375 49.089844v48.597656h128.230469v-48.597656c31.453125-9.707032 60.257812-26.464844 84.359375-49.089844l42.269531 24.070312 63.445312-111.4375-42.238281-24.046874c3.382813-15.351563 5.09375-31.078126 5.09375-46.898438zm-217.046875 151.441406c-83.503906 0-151.4375-67.9375-151.4375-151.441406s67.933594-151.4375 151.4375-151.4375 151.4375 67.933594 151.4375 151.4375-67.933594 151.441406-151.4375 151.441406zm0 0"/></svg>