<svg height="457.14286pt" viewBox="0 0 457.14286 457.14286" width="457.14286pt" xmlns="http://www.w3.org/2000/svg"><path d="m428.070312 0h-399c-16.027343 0-29.070312 13.042969-29.070312 29.074219v398.992187c0 16.03125 13.042969 29.078125 29.070312 29.078125h399c16.027344 0 29.074219-13.046875 29.074219-29.078125v-398.992187c0-16.03125-13.046875-29.074219-29.074219-29.074219zm-399 18.285156h399c6.046876 0 10.785157 4.742188 10.785157 10.789063v52.113281h-420.570313v-52.113281c0-6.046875 4.742188-10.789063 10.785156-10.789063zm399 420.570313h-399c-6.042968 0-10.785156-4.738281-10.785156-10.789063v-328.59375h420.570313v328.59375c0 6.050782-4.738281 10.789063-10.785157 10.789063zm0 0"/><path d="m158.777344 58.878906h251.125c5.054687 0 9.140625-4.09375 9.140625-9.140625 0-5.050781-4.085938-9.144531-9.140625-9.144531h-251.125c-5.054688 0-9.144532 4.09375-9.144532 9.144531 0 5.046875 4.089844 9.140625 9.144532 9.140625zm0 0"/><path d="m40.777344 56.226562c1.730468 1.644532 4.015625 2.652344 6.492187 2.652344.542969 0 1.1875-.09375 1.730469-.183594.644531-.09375 1.195312-.277343 1.742188-.546874.542968-.183594 1.097656-.457032 1.550781-.824219.554687-.363281 1.011719-.730469 1.375-1.097657.914062-.914062 1.554687-1.917968 2.011719-3.015624.453124-1.097657.730468-2.285157.730468-3.472657 0-2.382812-1.007812-4.757812-2.742187-6.492187-3.382813-3.382813-9.507813-3.382813-12.890625 0-1.742188 1.734375-2.652344 4.109375-2.652344 6.492187 0 1.1875.179688 2.375.644531 3.472657.453125 1.097656 1.1875 2.101562 2.007813 3.015624zm0 0"/><path d="m92.980469 58.878906c.546875 0 1.1875-.09375 1.734375-.183594.640625-.09375 1.195312-.277343 1.742187-.546874.542969-.183594 1.097657-.457032 1.550781-.824219.554688-.363281 1.011719-.730469 1.375-1.097657 1.734376-1.734374 2.742188-4.019531 2.742188-6.488281 0-2.382812-1.007812-4.757812-2.742188-6.492187-3.382812-3.382813-9.507812-3.382813-12.890624 0-1.742188 1.734375-2.652344 4.109375-2.652344 6.492187 0 2.46875.910156 4.753907 2.652344 6.488281 1.730468 1.644532 4.015624 2.652344 6.488281 2.652344zm0 0"/><path d="m335.847656 196.207031h-164.636718l-8.398438-26.386719c-1.207031-3.792968-4.730469-6.371093-8.714844-6.371093h-32.765625c-5.054687 0-9.144531 4.09375-9.144531 9.144531s4.089844 9.144531 9.144531 9.144531h26.078125l38.347656 120.484375c1.242188 3.890625 4.839844 6.375 8.714844 6.375.058594 0 .117188-.023437.171875-.027344h111.035157c3.972656 0 7.488281-2.566406 8.703124-6.351562l30.171876-94.082031c.890624-2.78125.402343-5.816407-1.324219-8.175781-1.710938-2.359376-4.460938-3.753907-7.382813-3.753907zm-36.839844 94.078125h-97.828124l-24.148438-75.792968h146.28125zm0 0"/><path d="m291.617188 320.023438c-15.125 0-27.429688 12.300781-27.429688 27.425781s12.304688 27.429687 27.429688 27.429687 27.425781-12.304687 27.425781-27.429687-12.300781-27.425781-27.425781-27.425781zm0 36.570312c-5.046876 0-9.144532-4.101562-9.144532-9.144531 0-5.039063 4.097656-9.140625 9.144532-9.140625 5.042968 0 9.140624 4.101562 9.140624 9.140625 0 5.042969-4.097656 9.144531-9.140624 9.144531zm0 0"/><path d="m208.570312 320.023438c-15.125 0-27.425781 12.300781-27.425781 27.425781s12.300781 27.429687 27.425781 27.429687 27.429688-12.304687 27.429688-27.429687-12.304688-27.425781-27.429688-27.425781zm0 36.570312c-5.042968 0-9.140624-4.101562-9.140624-9.144531 0-5.039063 4.097656-9.140625 9.140624-9.140625 5.046876 0 9.144532 4.101562 9.144532 9.140625 0 5.042969-4.097656 9.144531-9.144532 9.144531zm0 0"/></svg>