<svg height="512pt" viewBox="-5 0 512 512.0008" width="512pt" xmlns="http://www.w3.org/2000/svg"><path d="m471.574219 379.207031h-72.414063c99.347656-74.367187 110.363282-219.570312 21.398438-307.792969-73.546875-72.933593-185.96875-77.652343-264.824219-19.066406v-36.339844c0-12.488281-13.734375-20.164062-24.371094-13.617187l-72.238281 44.464844c-4.691406 2.886719-7.605469 8.105469-7.605469 13.617187v108.566406h-14.820312c-4.144531 0-7.5 3.355469-7.5 7.5v49.417969c0 4.140625 3.355469 7.5 7.5 7.5 4.140625 0 7.5-3.359375 7.5-7.5v-41.917969h118.855469v103.277344h-118.855469v-33.359375c0-4.144531-3.359375-7.5-7.5-7.5-4.144531 0-7.5 3.355469-7.5 7.5v33.359375h-11.222657c-9.914062 0-17.976562 8.0625-17.976562 17.976563v147.566406c0 32.609375 26.53125 59.140625 59.140625 59.140625h88.96875c20.578125 0 38.734375-10.5625 49.332031-26.554688h182.023438c4.140625 0 7.5-3.355468 7.5-7.5 0-4.140624-3.359375-7.5-7.5-7.5h-174.453125c3.773437-13.140624 1.621093-18.542968 2.238281-76.238281h264.324219c9.019531 0 16.355469 7.339844 16.355469 16.355469 0 33.023438-26.863282 59.882812-59.882813 59.882812h-20.582031c-4.140625 0-7.5 3.359376-7.5 7.5 0 4.144532 3.359375 7.5 7.5 7.5h20.582031c41.292969 0 74.882813-33.589843 74.882813-74.882812 0-17.289062-14.066407-31.355469-31.355469-31.355469zm-404.585938-319.578125c73.894531-45.480468 73.746094-46.238281 73.746094-43.621094v152.585938c-.050781.148438-.101563.296875-.15625.445312h-74.0625c.191406-115.554687-.433594-108.855468.472656-109.410156zm103.566407 109.410156h-14.023438c19.160156-49.625 66.449219-82.542968 120.6875-82.542968 70.933594 0 128.945312 57.515625 129.445312 128.507812.738282 103.789063-114.195312 164.753906-199.414062 109.851563v-15.554688c0-12.121093-9.863281-21.984375-21.984375-21.984375h-7.210937v-110.777344c0-4.140624-3.359376-7.5-7.5-7.5zm-152.578126 133.277344h166.773438c4.136719 0 7.5 3.363282 7.5 7.5v116.898438h-177.25v-121.421875c0-1.640625 1.335938-2.976563 2.976562-2.976563zm130.132813 194.683594h-88.96875c-24.339844 0-44.140625-19.804688-44.140625-44.144531v-11.140625h177.25v11.140625c0 24.339843-19.800781 44.144531-44.140625 44.144531zm59.140625-117.792969v-36.875c95.042969 52.785157 215.207031-15.652343 214.414062-127.433593-.835937-118.304688-137.582031-185.535157-231.703124-114.066407-13.488282 10.242188-25.089844 22.871094-34.226563 37.054688v-66.421875c73.167969-61.578125 183.277344-59.792969 254.265625 10.601562 88.671875 87.933594 69.078125 234.839844-37.964844 297.144532h-164.785156zm0 0"/></svg>