<svg id="Layer_5" enable-background="new 0 0 64 64" height="512" viewBox="0 0 64 64" width="512" xmlns="http://www.w3.org/2000/svg"><g><path d="m24.536 49.95 7.464 7.464 7.464-7.464c.99-.99 1.536-2.307 1.536-3.707 0-2.891-2.352-5.243-5.243-5.243-1.4 0-2.717.545-3.707 1.536l-.05.05-.05-.05c-.991-.991-2.307-1.536-3.707-1.536-2.891 0-5.243 2.352-5.243 5.243 0 1.4.545 2.716 1.536 3.707zm3.707-6.95c.866 0 1.68.337 2.293.95l1.464 1.464 1.464-1.464c.613-.612 1.427-.95 2.293-.95 1.788 0 3.243 1.455 3.243 3.243 0 .866-.337 1.68-.95 2.293l-6.05 6.05-6.05-6.05c-.613-.613-.95-1.427-.95-2.293 0-1.788 1.455-3.243 3.243-3.243z"/><path d="m62.841 16.608c.105-.285.159-.584.159-.887v-.176c0-1.403-1.142-2.545-2.545-2.545-.491 0-.968.141-1.379.406l-6.076 3.917v-7.559l-.316-.634c-1.275-2.547-3.836-4.13-6.684-4.13s-5.409 1.583-6.684 4.131l-.316.633v15.236h-4v-15.236l-3.707-7.414c-.416-.832-1.253-1.35-2.185-1.35h-.217c-.931 0-1.769.518-2.185 1.351l-3.706 7.413v4.721l-.712-1.9c-.355-.948-1.275-1.585-2.288-1.585s-1.933.637-2.288 1.585l-.789 2.105-5.331-13.941-10.903 3.634 7.981 20.617h-1.67c-3.309 0-6 2.691-6 6v26c0 3.309 2.691 6 6 6h50c3.309 0 6-2.691 6-6v-26c0-2.591-1.646-4.815-3.97-5.648l.98-1.278zm-2.681-1.522c.338-.219.839.052.84.458v.176c0 .065-.012.13-.034.19l-2.214 5.937-4.149-3.18zm-13.186 19.914 9.229-12.585 1.611 1.235-8.699 11.35zm-29.974-14h6v14h-6zm26 16v24h-22v-24zm-10-26v2h-8v-2zm18 0v6h-2v-1c0-1.654-1.346-3-3-3s-3 1.346-3 3v1h-2v-6zm3.615 10.198-10.122 13.802h-2.938l11.497-15zm-5.615-2.198h2v.391l-2 2.609zm-2 5.609-2 2.609v-11.218c0-.551.449-1 1-1s1 .449 1 1zm-4-5.609v10.828l-2 2.609v-13.437zm3-12c1.668 0 3.192.75 4.216 2h-8.433c1.025-1.25 2.549-2 4.217-2zm-7 20v8h-4v-8zm-10.504-23.755c.075-.151.227-.245.396-.245h.217c.169 0 .32.094.396.245l2.877 5.755h-6.764zm-3.496 11.755h8v20h-8v-15.181zm-5.415-1.713c.129-.344.7-.344.829 0l2.143 5.713h-5.114zm-9.177-10.036 5.455 14.266-.863 2.302v15.181h-.315l-11.374-29.383zm-3.408 23.749h2.444l3.097 8h-5.541c-2.206 0-4-1.794-4-4s1.794-4 4-4zm-4 30v-21.54c1.063.954 2.462 1.54 4 1.54h12v24h-12c-2.206 0-4-1.794-4-4zm54 4h-12v-24h12c1.538 0 2.937-.586 4-1.54v21.54c0 2.206-1.794 4-4 4zm4-30c0 2.206-1.794 4-4 4h-5.365l6.071-7.92c1.879.335 3.294 1.962 3.294 3.92z"/></g></svg>