<svg id="line" height="512" viewBox="0 0 64 64" width="512" xmlns="http://www.w3.org/2000/svg"><path d="m27 10h2v2h-2z"/><path d="m35 10h2v2h-2z"/><path d="m3.992 52.96a9.559 9.559 0 0 0 2.841 6.09 9.562 9.562 0 0 0 6.09 2.842c.2.012.387.019.578.019a7.935 7.935 0 0 0 2.285-.33l1.231-.307a11.562 11.562 0 0 0 7.706-6.42 32.084 32.084 0 0 1 14.555 0 11.558 11.558 0 0 0 7.7 6.422l1.175.294a7.95 7.95 0 0 0 2.318.341c.191 0 .384-.007.578-.019a9.56 9.56 0 0 0 6.09-2.842c3.509-3.509 3.826-8.9.707-12.021a8.16 8.16 0 0 0 -9.727-1l-.3-.6a4.359 4.359 0 0 0 -2.382-2.138c.089-.185.179-.369.258-.559a11.8 11.8 0 0 0 .612-2.007l1.985 1.985a1 1 0 0 0 .708.29 7.929 7.929 0 0 0 7.53-5.427l.419-1.257a1 1 0 0 0 -.035-.722 22.641 22.641 0 0 0 -13.93-12.412c0-.108.016-.215.016-.325v-4.075a11.747 11.747 0 0 0 .807-6.864 4.991 4.991 0 1 0 -4.925-7.733 11.93 11.93 0 0 0 -13.764 0 4.991 4.991 0 1 0 -4.925 7.733 11.747 11.747 0 0 0 .807 6.864v4.075c0 .11.013.217.016.325a22.638 22.638 0 0 0 -13.93 12.412 1 1 0 0 0 -.035.722l.419 1.257a7.929 7.929 0 0 0 7.53 5.427 1 1 0 0 0 .707-.293l1.985-1.985a11.8 11.8 0 0 0 .612 2.007c.079.189.168.372.256.555a4.359 4.359 0 0 0 -2.391 2.142l-.3.606a8.16 8.16 0 0 0 -9.74 1 7.533 7.533 0 0 0 -2.137 5.928zm52.441-4.517c2.339 2.34 2.022 6.463-.707 9.193a7.562 7.562 0 0 1 -4.809 2.26 6.162 6.162 0 0 1 -1.662-.113l-.451-.112a5.272 5.272 0 0 1 -2.271-1.328 5.56 5.56 0 0 1 -1.552-4.383 7.8 7.8 0 0 1 7.5-7.083 5.506 5.506 0 0 1 3.952 1.566zm-32.953-18.626c.233.283.479.557.742.819a10.938 10.938 0 0 0 7.2 3.189l.22.43a21.449 21.449 0 0 1 2.358 9.745 1 1 0 0 0 1 1h1.48a7.771 7.771 0 0 0 6.337-3.282 1 1 0 0 0 .183-.577 15.875 15.875 0 0 0 -3.4-9.795l-.253-.32c.145-.13.294-.251.432-.39a10.974 10.974 0 0 0 .741-.819 18 18 0 0 1 2.438 2.921 9.816 9.816 0 0 1 -8.169 15.262h-5.578a9.816 9.816 0 0 1 -8.168-15.262 18.042 18.042 0 0 1 2.437-2.921zm14.265 2.409.284.36a13.869 13.869 0 0 1 2.971 8.227 5.763 5.763 0 0 1 -4.52 2.187h-.5a23.485 23.485 0 0 0 -2.369-9.278 10.944 10.944 0 0 0 4.134-1.496zm17.182 3.831-.3.883a5.919 5.919 0 0 1 -4.627 3.96v-.9a3 3 0 0 1 3-3v-2a4.991 4.991 0 0 0 -4.962 4.624l-1.444-1.444a11.781 11.781 0 0 0 -1.973-6.551 19.935 19.935 0 0 0 -2.972-3.489 10.859 10.859 0 0 0 1.089-2.917 20.621 20.621 0 0 1 12.189 10.834zm-11.927-32.057a2.992 2.992 0 0 1 .289 5.971 12.016 12.016 0 0 0 -2.861-4.5 2.994 2.994 0 0 1 2.572-1.471zm-1 10a10 10 0 0 1 -9.387 9.969 6 6 0 1 0 -1.226 0 9.994 9.994 0 1 1 10.613-9.969zm-6 4a4 4 0 0 1 -3 3.858v-4a4 4 0 0 0 2.444-1.858 3.959 3.959 0 0 1 .556 2zm-4-2a2 2 0 0 1 -1.924-1.485 3.851 3.851 0 0 1 3.848 0 2 2 0 0 1 -1.924 1.485zm-3.444 0a4 4 0 0 0 2.444 1.858v4a3.953 3.953 0 0 1 -2.444-5.858zm-10.556-9a3 3 0 0 1 5.573-1.53 12.006 12.006 0 0 0 -2.862 4.5 2.994 2.994 0 0 1 -2.711-2.97zm14 19a11.966 11.966 0 0 0 9-4.089v.946a9 9 0 1 1 -18 0v-.946a11.966 11.966 0 0 0 9 4.089zm-22.632 10.94-.295-.883a20.621 20.621 0 0 1 12.189-10.834 10.859 10.859 0 0 0 1.089 2.917 19.942 19.942 0 0 0 -2.972 3.489 11.788 11.788 0 0 0 -1.973 6.55l-1.444 1.445a4.991 4.991 0 0 0 -4.962-4.624v2a3 3 0 0 1 3 3v.9a5.919 5.919 0 0 1 -4.632-3.96zm8.59 9.38a2.361 2.361 0 0 1 1.647-1.252 11.781 11.781 0 0 0 9.606 4.932h5.578a11.781 11.781 0 0 0 9.6-4.931 2.362 2.362 0 0 1 1.637 1.251l.422.844c-.214.181-.424.37-.626.572a9.555 9.555 0 0 0 -2.842 6.09 7.966 7.966 0 0 0 .505 3.415 9.75 9.75 0 0 1 -2.585-3.688 1 1 0 0 0 -.652-.523 34.085 34.085 0 0 0 -16.486 0 1 1 0 0 0 -.686.6 9.525 9.525 0 0 1 -2.605 3.654 7.953 7.953 0 0 0 .522-3.457 9.561 9.561 0 0 0 -2.841-6.09c-.2-.2-.4-.384-.616-.562zm-10.418 2.123a5.506 5.506 0 0 1 3.949-1.566 7.8 7.8 0 0 1 7.5 7.083 5.56 5.56 0 0 1 -1.552 4.383 5.275 5.275 0 0 1 -2.352 1.35l-.319.08a6.239 6.239 0 0 1 -1.712.123 7.558 7.558 0 0 1 -4.809-2.26 7.557 7.557 0 0 1 -2.26-4.81 5.562 5.562 0 0 1 1.555-4.383z"/><path d="m7 52h2v2h-2z"/><path d="m9 49h2v2h-2z"/><path d="m13 49h2v2h-2z"/><path d="m55 52h2v2h-2z"/><path d="m53 49h2v2h-2z"/><path d="m49 49h2v2h-2z"/></svg>