<?xml version="1.0"?>
<svg xmlns="http://www.w3.org/2000/svg" id="line" viewBox="0 0 64 64" width="512" height="512"><path d="M2.648,35.937l8,3A1,1,0,0,0,11.98,38.2l1.777-8.882a.407.407,0,0,1,.733-.1,4.868,4.868,0,0,1,.51,2.16v3.967A12.618,12.618,0,0,1,12.336,43.1c-.22-.217-.44-.432-.651-.658a1,1,0,0,0-.713-.316.962.962,0,0,0-.724.293L7.577,45.092A1,1,0,0,0,7.569,46.5,32.791,32.791,0,0,0,31,56a32.791,32.791,0,0,0,23.431-9.5,1,1,0,0,0-.008-1.406l-2.671-2.671a.959.959,0,0,0-.724-.293,1,1,0,0,0-.713.316c-.21.225-.431.441-.651.658A12.618,12.618,0,0,1,47,35.343V29.414l5.293,5.293a.993.993,0,0,0,.849.283l7-1a1,1,0,0,0,.844-.825l1-6a1,1,0,0,0-.279-.872L56.824,21.41l-1.83-3.718a5.4,5.4,0,0,0-4.4-5.069l2.285-4.14a1,1,0,0,0-.361-1.34,6.09,6.09,0,0,0-8.731,2.822L43.341,11h-.073a8.89,8.89,0,0,0-8.717,7.146L33.18,25H20.414l-3.288-3.288A5.844,5.844,0,0,0,7.767,23.23L2.105,34.553a1,1,0,0,0,.543,1.384ZM30,35v4h-.465A9.656,9.656,0,0,0,28,39.133V35Zm-.465,6h2.93A7.535,7.535,0,0,1,40,48.536v.456a28.2,28.2,0,0,1-18,0v-.456A7.535,7.535,0,0,1,29.535,41Zm18.649,3.446a25.282,25.282,0,0,1-6.2,3.786,9.482,9.482,0,0,0-.709-3.353,11.27,11.27,0,0,0,5.585-2.417A14.69,14.69,0,0,0,48.184,44.446ZM20.015,48.232a25.282,25.282,0,0,1-6.2-3.786,14.57,14.57,0,0,0,1.322-1.982,11.279,11.279,0,0,0,5.586,2.415A9.482,9.482,0,0,0,20.015,48.232Zm31.039-3.681L52.3,45.794A30.931,30.931,0,0,1,31,54,30.931,30.931,0,0,1,9.7,45.794l1.243-1.243A28.563,28.563,0,0,0,31,52.467,28.563,28.563,0,0,0,51.054,44.551Zm8.08-12.437-5.78.825-2.173-2.172A7.747,7.747,0,0,1,58.324,26h.262l1.343,1.343ZM45.622,10.753A4.092,4.092,0,0,1,50.6,8.461l-2.48,4.491a1,1,0,0,0,.764,1.477l1.089.123A3.4,3.4,0,0,1,53,17.936a.992.992,0,0,0,.1.441l2,4.064a1,1,0,0,0,.19.266l1.426,1.427a9.754,9.754,0,0,0-7.058,5.113l-2.954-2.954A1,1,0,0,0,45,27v8.343a14.652,14.652,0,0,0,.969,5.24A9.3,9.3,0,0,1,40.2,42.975a9.738,9.738,0,0,0-.994-1.182A9.472,9.472,0,0,0,32.465,39H32V35h.084A3.92,3.92,0,0,0,36,31.084V27h.7A5.3,5.3,0,0,0,42,21.7a10.478,10.478,0,0,1,1.1-4.662l.43-.861a12.314,12.314,0,0,0,.674-1.628l.729-2.188ZM38.4,15.018A6.841,6.841,0,0,1,42.6,13.032l-.294.882a10.434,10.434,0,0,1-.566,1.365l-.43.861A12.481,12.481,0,0,0,40,21.7,3.3,3.3,0,0,1,36.7,25H35.22l1.292-6.461A6.868,6.868,0,0,1,38.4,15.018ZM34,27v4.084A1.918,1.918,0,0,1,32.084,33H25.916A1.918,1.918,0,0,1,24,31.084V27ZM9.556,24.125a3.844,3.844,0,0,1,6.156-1l3.581,3.581A1,1,0,0,0,20,27h2v4.084A3.92,3.92,0,0,0,25.916,35H26v4.68a9.493,9.493,0,0,0-3.207,2.113,9.671,9.671,0,0,0-.994,1.183,9.309,9.309,0,0,1-5.769-2.392A14.633,14.633,0,0,0,17,35.343V31.376a6.858,6.858,0,0,0-.722-3.055,2.39,2.39,0,0,0-4.482.6L10.25,36.651l-5.858-2.2Z"/><rect x="56" y="28" width="2" height="2"/><rect x="49" y="18" width="2" height="2"/></svg>
