<svg height="682pt" viewBox="-21 -108 682.66787 682" width="682pt" xmlns="http://www.w3.org/2000/svg"><path d="m121.820312 357.011719c-19.203124 0-34.828124 15.625-34.828124 34.828125s15.625 34.828125 34.828124 34.828125c19.203126 0 34.828126-15.625 34.828126-34.828125s-15.625-34.828125-34.828126-34.828125zm0 44.480469c-5.328124 0-9.65625-4.328126-9.65625-9.652344 0-5.320313 4.328126-9.652344 9.65625-9.652344 5.324219 0 9.652344 4.332031 9.652344 9.652344 0 5.324218-4.328125 9.652344-9.652344 9.652344zm0 0"/><path d="m527.824219 357.011719c-19.210938 0-34.828125 15.625-34.828125 34.828125s15.617187 34.828125 34.828125 34.828125c19.203125 0 34.828125-15.625 34.828125-34.828125s-15.625-34.828125-34.828125-34.828125zm0 44.480469c-5.328125 0-9.652344-4.328126-9.652344-9.652344 0-5.320313 4.324219-9.652344 9.652344-9.652344 5.320312 0 9.652343 4.332031 9.652343 9.652344 0 5.324218-4.332031 9.652344-9.652343 9.652344zm0 0"/><path d="m177.101562 264.371094h24.835938c6.949219 0 12.585938-5.636719 12.585938-12.589844 0-6.945312-5.636719-12.585938-12.585938-12.585938h-24.835938c-6.953124 0-12.585937 5.640626-12.585937 12.585938 0 6.953125 5.632813 12.589844 12.585937 12.589844zm0 0"/><path d="m627.410156-5.429688h-243.78125c-6.945312 0-12.585937 5.636719-12.585937 12.589844s5.640625 12.585938 12.585937 12.585938h231.191406v17.214844h-345.011718v-17.214844h14.007812c6.953125 0 12.589844-5.632813 12.589844-12.585938 0-6.953125-5.636719-12.589844-12.589844-12.589844h-26.597656c-6.945312 0-12.585938 5.636719-12.585938 12.589844v78.222656h-38.148437c-35.261719 0-66.371094 22.5-77.417969 55.984376l-16.351562 49.566406h-17.890625c-26.265625 0-47.636719 21.371094-47.636719 47.640625v76.632812c-26.933594 5.792969-47.1875 29.796875-47.1875 58.441407v18.191406c0 6.953125 5.632812 12.589844 12.585938 12.589844h42.144531c5.929687 31.648437 33.746093 55.683593 67.089843 55.683593s61.160157-24.035156 67.089844-55.683593h271.824219c5.929687 31.648437 33.746094 55.683593 67.089844 55.683593s61.160156-24.035156 67.089843-55.683593h32.5c6.949219 0 12.585938-5.636719 12.585938-12.589844v-384.679688c-.003906-6.953125-5.636719-12.589844-12.589844-12.589844zm-555.046875 244c0-11.097656 8.09375-20.347656 18.691407-22.144531-.003907.058594-.011719.113281-.015626.167969-.058593.652344-.136718 1.296875-.234374 1.9375-.015626.09375-.035157.183594-.046876.28125-.09375.546875-.203124 1.089844-.320312 1.628906-.039062.183594-.082031.363282-.125.550782-.121094.496093-.25.992187-.394531 1.480468-.039063.125-.074219.261719-.113281.394532-.179688.59375-.382813 1.1875-.601563 1.765624-.058594.152344-.121094.308594-.179687.460938-.175782.445312-.355469.882812-.550782 1.316406-.078125.175782-.15625.351563-.242187.527344-.238281.515625-.488281 1.015625-.753907 1.515625-.03125.054687-.054687.105469-.085937.160156-.292969.539063-.605469 1.066407-.925781 1.585938-.097656.164062-.207032.320312-.308594.476562-.25.390625-.507812.769531-.769531 1.140625-.109375.148438-.207031.292969-.3125.441406-.363281.488282-.734375.964844-1.121094 1.433594-.078125.09375-.15625.179688-.234375.269532-.324219.386718-.664062.761718-1.003906 1.128906-.132813.144531-.269532.28125-.402344.421875-.339844.351562-.6875.691406-1.042969 1.027343-.097656.09375-.195312.191407-.296875.28125-.449218.417969-.910156.8125-1.382812 1.199219-.128906.101563-.253906.199219-.382813.296875-.371093.292969-.75.582032-1.136719.859375-.144531.101563-.296874.214844-.449218.316407-.484375.335937-.976563.664062-1.480469.972656-.027344.015625-.046875.035156-.078125.046875-.527344.324219-1.074219.625-1.621094.917969-.15625.085937-.316406.164062-.472656.242187-.429688.21875-.867188.429687-1.308594.628906-.097656.042969-.195312.085938-.292968.132813v-3.863282zm49.457031 196.367188c-23.765624 0-43.09375-19.332031-43.09375-43.097656s19.328126-43.09375 43.09375-43.09375c23.765626 0 43.097657 19.328125 43.097657 43.09375s-19.332031 43.097656-43.097657 43.097656zm122.8125-137.652344v81.96875h-55.722656c-5.929687-31.652344-33.746094-55.683594-67.089844-55.683594s-61.160156 24.03125-67.089843 55.683594h-29.554688v-5.601562c0-19.082032 15.523438-34.605469 34.597657-34.605469 6.953124 0 12.589843-5.632813 12.589843-12.585937v-57.621094c.316407-.074219.628907-.164063.945313-.242188.304687-.070312.605468-.144531.910156-.222656.609375-.160156 1.214844-.335938 1.816406-.519531.222656-.066407.453125-.125.671875-.195313.820313-.257812 1.632813-.53125 2.4375-.824218.15625-.0625.316407-.125.472657-.183594.644531-.246094 1.28125-.496094 1.914062-.757813.269531-.113281.539062-.230469.800781-.347656.523438-.230469 1.042969-.457031 1.550781-.703125.285157-.132812.570313-.269531.847657-.410156.5-.242188.992187-.496094 1.484375-.761719.265625-.140625.539062-.277344.800781-.425781.539063-.300782 1.070313-.609375 1.601563-.921875.195312-.117188.402343-.234375.597656-.351563.722656-.445312 1.433594-.898437 2.132812-1.371094.113282-.074218.222656-.15625.335938-.234374.582031-.394532 1.15625-.804688 1.722656-1.226563.226562-.171875.445312-.339844.671875-.511719.449219-.34375.898437-.695312 1.335937-1.054687.238282-.191407.472657-.386719.714844-.585938.417969-.355469.839844-.71875 1.253906-1.089843.222657-.195313.445313-.390626.664063-.59375.449219-.410157.886719-.835938 1.324219-1.261719.164062-.164063.335937-.320313.5-.488281.597656-.601563 1.183594-1.210938 1.75-1.835938.066406-.074219.132812-.15625.199218-.230469.492188-.546875.976563-1.101562 1.449219-1.671875.175781-.210937.34375-.421875.519531-.636718.359376-.449219.71875-.898438 1.0625-1.355469.1875-.242188.363282-.484375.542969-.730469.332031-.449219.65625-.90625.972657-1.367188.171874-.242187.335937-.488281.503906-.730468.335937-.507813.664062-1.019532.984375-1.539063.128906-.199219.257812-.398437.382812-.605469.4375-.726562.863281-1.464843 1.273438-2.210937.035156-.070313.0625-.132813.101562-.199219.367188-.679687.71875-1.367187 1.058594-2.066406.117187-.238281.230469-.488281.34375-.726562.25-.535157.492187-1.066407.726563-1.609376.121093-.277343.238281-.558593.355468-.84375.214844-.523437.421875-1.050781.621094-1.578124.109375-.28125.214844-.570313.324219-.851563.203125-.578125.394531-1.152344.585937-1.734375.078125-.238281.160156-.480469.234375-.722656.253907-.824219.492188-1.660156.710938-2.503906.003906-.03125.015625-.066407.019531-.09375.207031-.804688.394531-1.621094.566406-2.441407.054688-.265625.101563-.539062.15625-.800781.113282-.597656.226563-1.191406.316406-1.792969.054688-.3125.097657-.625.144532-.9375.082031-.574219.15625-1.152343.21875-1.734375.039062-.3125.074218-.625.101562-.941406.058594-.621094.101563-1.25.140625-1.875.019531-.269531.039063-.535156.054688-.804688.003906-.089843.015625-.175781.019531-.269531h128.324219v81.171875zm0-106.351562h-105.40625l13.75-41.679688c7.632813-23.144531 29.136719-38.695312 53.511719-38.695312h38.148438v80.375zm283.191407 244.003906c-23.765625 0-43.101563-19.332031-43.101563-43.097656s19.335938-43.09375 43.101563-43.09375c23.757812 0 43.09375 19.328125 43.09375 43.09375s-19.335938 43.097656-43.09375 43.097656zm86.996093-55.683594h-19.910156c-1.484375-7.9375-4.34375-15.386718-8.320312-22.105468h28.230468zm0-47.277344h-54.21875c-9.734374-5.355468-20.90625-8.40625-32.777343-8.40625-11.875 0-23.046875 3.050782-32.78125 8.40625h-83.613281c-6.949219 0-12.589844 5.636719-12.589844 12.582032 0 6.953125 5.640625 12.589844 12.589844 12.589844h57.625c-3.980469 6.71875-6.835938 14.167968-8.320313 22.105468h-190.925781v-22.105468h40.609375c6.949219 0 12.582031-5.636719 12.582031-12.589844 0-6.945313-5.632812-12.582032-12.582031-12.582032h-40.609375v-22.101562h345.011718zm0-47.277343h-345.011718v-222.5625h345.011718zm0 0"/><path d="m325.78125 234.457031c2.582031 1.621094 5.195312 2.429688 7.835938 2.429688h61.328124c2.179688 0 4.074219-1.207031 5.6875-3.621094 1.605469-2.410156 2.410157-5.164063 2.410157-8.265625s-.8125-5.800781-2.429688-8.09375c-1.621093-2.300781-3.527343-3.449219-5.71875-3.449219h-45.429687v-1.566406c0-2.785156 1.859375-5.835937 5.585937-9.144531 3.722657-3.308594 8.207031-6.707032 13.457031-10.1875 5.25-3.480469 10.472657-7.3125 15.664063-11.5 5.191406-4.171875 9.632813-9.339844 13.332031-15.496094 3.691406-6.152344 5.535156-12.714844 5.535156-19.675781 0-10.691407-4.039062-19.179688-12.109374-25.480469-8.074219-6.296875-17.476563-9.449219-28.203126-9.449219-10.40625 0-19.460937 3.019531-27.183593 9.050781-7.710938 6.027344-11.570313 14.035157-11.570313 24.027344 0 9.300782 3.964844 13.953125 11.898438 13.953125 4.195312 0 7.5625-1.011719 10.117187-3.039062 2.542969-2.023438 3.824219-4.40625 3.824219-7.148438 0-4.648437 1.21875-8.046875 3.667969-10.191406 2.441406-2.148437 5.578125-3.222656 9.421875-3.222656 4.417968 0 7.734375 1.25 9.945312 3.746093 2.214844 2.5 3.316406 5.371094 3.316406 8.621094 0 4.0625-1.890624 8.242188-5.671874 12.539063s-8.40625 8.417969-13.875 12.363281l-15.8125 11.84375c-5.222657 3.933594-9.679688 8.375-13.371094 13.347656-3.683594 4.96875-5.53125 9.933594-5.53125 14.90625v16.8125c0 2.3125 1.292968 4.277344 3.878906 5.890625zm0 0"/><path d="m412.171875 208.980469h40.304687v19.203125c0 2.785156 1.320313 4.925781 3.964844 6.441406 2.644532 1.507812 5.796875 2.261719 9.472656 2.261719 3.679688 0 6.832032-.753907 9.472657-2.261719 2.644531-1.515625 3.964843-3.65625 3.964843-6.441406v-19.203125h7.410157c2.0625 0 3.957031-1.222657 5.683593-3.664063 1.722657-2.433594 2.582032-5.121094 2.582032-8.050781 0-3.144531-.71875-5.882813-2.152344-8.21875-1.4375-2.328125-3.472656-3.496094-6.113281-3.496094h-7.410157v-12.878906c0-2.824219-1.320312-4.972656-3.957031-6.445313-2.648437-1.46875-5.800781-2.207031-9.480469-2.207031-3.675781 0-6.828124.738281-9.472656 2.207031-2.644531 1.472657-3.957031 3.621094-3.957031 6.445313v12.878906h-14.816406l30.488281-61.15625c.570312-1.375.863281-2.464843.863281-3.269531 0-2.867188-1.550781-5.277344-4.652343-7.238281-3.101563-1.945313-6.03125-2.929688-8.785157-2.929688-5.050781 0-8.78125 2.28125-11.195312 6.832031l-39.792969 77.285157c-.917969 1.703125-1.378906 3.414062-1.378906 5.117187 0 2.714844.835937 4.851563 2.496094 6.425782 1.664062 1.578124 3.816406 2.363281 6.460937 2.363281zm0 0"/><path d="m506.226562 234.390625c2.523438 1.664063 5.683594 2.496094 9.472657 2.496094 3.558593 0 6.691406-.859375 9.390625-2.578125 2.695312-1.714844 4.046875-3.605469 4.046875-5.664063v-38.476562c0-3.894531 1.175781-7.019531 3.53125-9.367188 2.351562-2.34375 5.023437-3.519531 8.011719-3.519531 3.324218 0 6.226562 1.316406 8.695312 3.949219 2.472656 2.636719 3.707031 5.617187 3.707031 8.929687v38.476563c0 2.519531 1.347657 4.527343 4.046875 6.015625 2.695313 1.484375 5.769532 2.234375 9.214844 2.234375 3.675781 0 6.832031-.71875 9.472656-2.15625 2.640625-1.433594 3.964844-3.46875 3.964844-6.117188v-38.582031c0-9.878906-2.90625-18.375-8.699219-25.5-5.800781-7.117188-12.664062-10.675781-20.585937-10.675781-5.054688 0-9.449219 1.273437-13.179688 3.816406-3.730468 2.546875-6.460937 5.667969-8.179687 9.371094v-50.753907c0-2.40625-1.324219-4.355468-3.964844-5.847656-2.640625-1.488281-5.800781-2.238281-9.472656-2.238281-3.90625 0-7.09375.75-9.558594 2.238281-2.472656 1.492188-3.707031 3.441406-3.707031 5.847656v112.339844c0 2.175782 1.265625 4.097656 3.792968 5.761719zm0 0"/><path d="m360.789062 357.222656c.957032 0 1.929688-.109375 2.898438-.339844l.59375-.140624c6.765625-1.589844 10.960938-8.367188 9.363281-15.136719-1.589843-6.765625-8.367187-10.957031-15.136719-9.371094l-.589843.144531c-6.769531 1.589844-10.960938 8.367188-9.367188 15.136719 1.363281 5.800781 6.535157 9.707031 12.238281 9.707031zm0 0"/><path d="m332.847656 19.820312c.957032 0 1.925782-.113281 2.890625-.335937l.597657-.140625c6.765624-1.59375 10.964843-8.367188 9.375-15.132812-1.59375-6.769532-8.371094-10.960938-15.132813-9.375l-.59375.140624c-6.769531 1.59375-10.960937 8.363282-9.375 15.132813 1.363281 5.800781 6.53125 9.710937 12.238281 9.710937zm0 0"/></svg>