<svg id="Capa_1" enable-background="new 0 0 512 512" height="512" viewBox="0 0 512 512" width="512" xmlns="http://www.w3.org/2000/svg"><path id="XMLID_1125_" d="m437.019 74.981c-48.352-48.353-112.639-74.981-181.019-74.981s-132.667 26.628-181.019 74.981c-48.353 48.352-74.981 112.639-74.981 181.019s26.628 132.667 74.981 181.019c48.352 48.353 112.639 74.981 181.019 74.981s132.667-26.628 181.019-74.981c48.353-48.352 74.981-112.639 74.981-181.019s-26.628-132.667-74.981-181.019zm-8.529 20.135c-29.497-10.727-60.869-16.302-92.502-16.302-49.521 0-97.669 13.447-139.737 38.939-7.493-5.504-16.395-9.188-26.055-10.418 5.788-28.37 15.957-55.459 30.305-80.725 17.806-4.31 36.388-6.61 55.499-6.61 68.011 0 129.383 28.93 172.49 75.116zm-265.431 104.137c-19.958 0-36.194-16.237-36.194-36.194s16.237-36.194 36.194-36.194 36.194 16.237 36.194 36.194-16.236 36.194-36.194 36.194zm10.575-164.412c-11.232 23.39-19.303 48.057-24.056 73.67-20.084 4.965-35.943 20.751-41.005 40.797-24.767 3.652-48.856 10.249-71.942 19.667 24.6-61.789 74.584-110.812 137.003-134.134zm-145.521 159.779c25.117-12.061 51.68-20.404 79.165-24.867 1.008 8.444 3.891 16.315 8.227 23.19-32.422 45.728-49.529 99.458-49.529 155.883 0 18.278 1.809 36.328 5.396 53.996-32.136-40.328-51.372-91.368-51.372-146.822 0-21.226 2.833-41.799 8.113-61.38zm72.599 238.937c-9.77-27.12-14.737-55.609-14.737-84.731 0-50.808 14.974-99.254 43.401-140.815 5.938 4.461 12.787 7.765 20.211 9.599 22.215 119.557 116.004 213.4 234.229 236.693-36.858 23.839-80.748 37.697-127.816 37.697-59.411 0-113.757-22.075-155.288-58.443zm305.724 4.142c-117.354-14.801-212.67-103.516-236.252-218.913 24.375-3.1 43.914-21.865 48.184-45.861 44.773 9.976 86.915 30.57 122.474 59.959 1.864 1.541 4.121 2.292 6.365 2.292 2.879 0 5.736-1.237 7.713-3.63 3.519-4.257 2.92-10.56-1.337-14.079-39.174-32.377-85.834-54.765-135.35-65.027-1.376-7.165-4.118-13.845-7.943-19.769 38.06-22.178 81.278-33.858 125.697-33.858 41.464 0 82.434 10.339 118.671 29.911 23.625 36.746 37.342 80.439 37.342 127.276 0 45.217-12.793 87.498-34.934 123.432-8.62-33.157-22.603-64.46-41.719-93.318-3.05-4.604-9.255-5.863-13.859-2.814-4.604 3.05-5.864 9.255-2.814 13.859 21.148 31.926 35.565 67.051 42.927 104.454-10.41 13.241-22.207 25.34-35.165 36.086z"/><path id="XMLID_1141_" d="m379.38 246c-2.64 0-5.21 1.07-7.07 2.93-1.87 1.86-2.93 4.44-2.93 7.07s1.06 5.21 2.93 7.07c1.85 1.86 4.43 2.93 7.07 2.93 2.63 0 5.21-1.07 7.07-2.93s2.93-4.44 2.93-7.07-1.07-5.21-2.93-7.07c-1.87-1.86-4.44-2.93-7.07-2.93z"/></svg>