<svg id="Capa_1" enable-background="new 0 0 512 512" height="512" viewBox="0 0 512 512" width="512" xmlns="http://www.w3.org/2000/svg"><path d="m476.848 216.478h-140.205l49.811-49.811c9.175 5.19 19.578 7.958 30.336 7.958 34.053 0 61.757-27.704 61.757-61.757 0-30.699-22.512-56.237-51.896-60.971-4.734-29.384-30.273-51.897-60.971-51.897-34.053 0-61.758 27.704-61.758 61.757 0 10.758 2.769 21.16 7.959 30.336l-124.384 124.385h-152.345c-8.449 0-15.299 6.85-15.299 15.299v84.401c0 76.612 37.414 148.769 100.083 193.02 2.582 1.823 5.664 2.802 8.825 2.802h254.479c3.16 0 6.243-.979 8.825-2.802 62.668-44.251 100.083-116.409 100.083-193.02v-84.401c-.001-8.449-6.851-15.299-15.3-15.299zm-343.134 264.924c-48.117-35.679-78.245-90.599-82.69-149.926h409.953c-4.446 59.327-34.573 114.247-82.69 149.926zm327.835-180.523h-411.098v-53.803h411.099v53.803zm-118.795-196.388c5.858-5.858 5.989-15.314.295-21.332-5.5-5.813-8.529-13.414-8.53-21.402 0-17.182 13.979-31.16 31.16-31.16 17.182 0 31.16 13.978 31.16 31.16 0 1.081-.06 2.197-.177 3.317-.482 4.59 1.135 9.152 4.399 12.415 3.263 3.262 7.83 4.875 12.416 4.395 1.114-.118 2.228-.177 3.312-.177 17.182 0 31.16 13.978 31.16 31.16s-13.978 31.16-31.16 31.16c-7.987 0-15.588-3.029-21.401-8.53-6.017-5.694-15.474-5.563-21.332.295l-80.685 80.685h-62.604z"/></svg>