<?xml version="1.0" encoding="iso-8859-1"?>
<!-- Generator: Adobe Illustrator 19.0.0, SVG Export Plug-In . SVG Version: 6.00 Build 0)  -->
<svg version="1.1" id="Capa_1" xmlns="http://www.w3.org/2000/svg" xmlns:xlink="http://www.w3.org/1999/xlink" x="0px" y="0px"
	 viewBox="0 0 425.7 425.7" style="enable-background:new 0 0 425.7 425.7;" xml:space="preserve">
<g>
	<g>
		<path d="M377.4,48.85c-30.8-30.9-72.6-48.2-116.3-48.1c-5.5,0-10,4.5-10,10l-0.3,144l-141.1,0.2v-42.5c0-33.4-27.1-60.5-60.5-60.6
			H10c-5.5,0-10,4.5-10,10s4.5,10,10,10h39.2c22.4,0.1,40.4,18.3,40.5,40.6v42.5h-6c-5.5,0-10,4.5-10,10
			c0,90.5,73.3,163.8,163.7,163.9c0.2,0,0.4,0,0.5,0h23.2c90.6,0.3,164.3-72.9,164.6-163.5c0-0.1,0-0.2,0-0.3v-0.6
			C425.7,120.85,408.3,79.85,377.4,48.85z M271.1,21.05c71.6,5,128.7,61.9,133.9,133.5l-134.3,0.2L271.1,21.05z M363.3,266.75
			c-27,27.1-63.8,42.3-102.1,42.1H238c-75.8,0.2-138.8-58.4-143.9-134l166.6-0.2l144.4-0.3C402.9,209.25,388,242.15,363.3,266.75z"
			/>
	</g>
</g>
<g>
	<g>
		<path d="M329.1,332.75c-25.5,0-46.1,20.7-46.1,46.1c0,25.5,20.7,46.1,46.1,46.1c25.4,0,46.1-20.6,46.1-46.1
			C375.2,353.45,354.5,332.75,329.1,332.75z M329.1,404.95c-14.4,0-26.1-11.7-26.1-26.1s11.7-26.1,26.1-26.1s26.1,11.7,26.1,26.1
			C355.2,393.35,343.5,404.95,329.1,404.95z"/>
	</g>
</g>
<g>
	<g>
		<path d="M170.9,332.75c-25.5,0-46.1,20.6-46.1,46.1s20.6,46.1,46.1,46.1s46.1-20.6,46.1-46.1
			C216.9,353.45,196.3,332.85,170.9,332.75z M197,378.95c-0.1,14.3-11.7,26-26.1,26c-14.4,0-26.1-11.7-26.1-26.1
			s11.7-26.1,26.1-26.1c14.4,0,26.1,11.7,26.1,26.1C197,378.85,197,378.85,197,378.95z"/>
	</g>
</g>
<g>
</g>
<g>
</g>
<g>
</g>
<g>
</g>
<g>
</g>
<g>
</g>
<g>
</g>
<g>
</g>
<g>
</g>
<g>
</g>
<g>
</g>
<g>
</g>
<g>
</g>
<g>
</g>
<g>
</g>
</svg>
